%TF.GenerationSoftware,KiCad,Pcbnew,(6.0.11-0)*%
%TF.CreationDate,2023-02-12T12:51:19-05:00*%
%TF.ProjectId,TMC-Breakout,544d432d-4272-4656-916b-6f75742e6b69,1.0.0*%
%TF.SameCoordinates,Original*%
%TF.FileFunction,Legend,Bot*%
%TF.FilePolarity,Positive*%
%FSLAX46Y46*%
G04 Gerber Fmt 4.6, Leading zero omitted, Abs format (unit mm)*
G04 Created by KiCad (PCBNEW (6.0.11-0)) date 2023-02-12 12:51:19*
%MOMM*%
%LPD*%
G01*
G04 APERTURE LIST*
%ADD10C,0.150000*%
%ADD11R,1.700000X1.700000*%
%ADD12O,1.700000X1.700000*%
%ADD13R,1.524000X1.524000*%
%ADD14C,1.524000*%
G04 APERTURE END LIST*
D10*
X121837380Y-86153904D02*
X122837380Y-86487238D01*
X121837380Y-86820571D01*
X122837380Y-87677714D02*
X122837380Y-87106285D01*
X122837380Y-87392000D02*
X121837380Y-87392000D01*
X121980238Y-87296761D01*
X122075476Y-87201523D01*
X122123095Y-87106285D01*
X122742142Y-88106285D02*
X122789761Y-88153904D01*
X122837380Y-88106285D01*
X122789761Y-88058666D01*
X122742142Y-88106285D01*
X122837380Y-88106285D01*
X121837380Y-88772952D02*
X121837380Y-88868190D01*
X121885000Y-88963428D01*
X121932619Y-89011047D01*
X122027857Y-89058666D01*
X122218333Y-89106285D01*
X122456428Y-89106285D01*
X122646904Y-89058666D01*
X122742142Y-89011047D01*
X122789761Y-88963428D01*
X122837380Y-88868190D01*
X122837380Y-88772952D01*
X122789761Y-88677714D01*
X122742142Y-88630095D01*
X122646904Y-88582476D01*
X122456428Y-88534857D01*
X122218333Y-88534857D01*
X122027857Y-88582476D01*
X121932619Y-88630095D01*
X121885000Y-88677714D01*
X121837380Y-88772952D01*
X122742142Y-89534857D02*
X122789761Y-89582476D01*
X122837380Y-89534857D01*
X122789761Y-89487238D01*
X122742142Y-89534857D01*
X122837380Y-89534857D01*
X121837380Y-90201523D02*
X121837380Y-90296761D01*
X121885000Y-90392000D01*
X121932619Y-90439619D01*
X122027857Y-90487238D01*
X122218333Y-90534857D01*
X122456428Y-90534857D01*
X122646904Y-90487238D01*
X122742142Y-90439619D01*
X122789761Y-90392000D01*
X122837380Y-90296761D01*
X122837380Y-90201523D01*
X122789761Y-90106285D01*
X122742142Y-90058666D01*
X122646904Y-90011047D01*
X122456428Y-89963428D01*
X122218333Y-89963428D01*
X122027857Y-90011047D01*
X121932619Y-90058666D01*
X121885000Y-90106285D01*
X121837380Y-90201523D01*
X123542619Y-83534857D02*
X123495000Y-83582476D01*
X123447380Y-83677714D01*
X123447380Y-83915809D01*
X123495000Y-84011047D01*
X123542619Y-84058666D01*
X123637857Y-84106285D01*
X123733095Y-84106285D01*
X123875952Y-84058666D01*
X124447380Y-83487238D01*
X124447380Y-84106285D01*
X123447380Y-84725333D02*
X123447380Y-84820571D01*
X123495000Y-84915809D01*
X123542619Y-84963428D01*
X123637857Y-85011047D01*
X123828333Y-85058666D01*
X124066428Y-85058666D01*
X124256904Y-85011047D01*
X124352142Y-84963428D01*
X124399761Y-84915809D01*
X124447380Y-84820571D01*
X124447380Y-84725333D01*
X124399761Y-84630095D01*
X124352142Y-84582476D01*
X124256904Y-84534857D01*
X124066428Y-84487238D01*
X123828333Y-84487238D01*
X123637857Y-84534857D01*
X123542619Y-84582476D01*
X123495000Y-84630095D01*
X123447380Y-84725333D01*
X123542619Y-85439619D02*
X123495000Y-85487238D01*
X123447380Y-85582476D01*
X123447380Y-85820571D01*
X123495000Y-85915809D01*
X123542619Y-85963428D01*
X123637857Y-86011047D01*
X123733095Y-86011047D01*
X123875952Y-85963428D01*
X124447380Y-85392000D01*
X124447380Y-86011047D01*
X123447380Y-86344380D02*
X123447380Y-86963428D01*
X123828333Y-86630095D01*
X123828333Y-86772952D01*
X123875952Y-86868190D01*
X123923571Y-86915809D01*
X124018809Y-86963428D01*
X124256904Y-86963428D01*
X124352142Y-86915809D01*
X124399761Y-86868190D01*
X124447380Y-86772952D01*
X124447380Y-86487238D01*
X124399761Y-86392000D01*
X124352142Y-86344380D01*
X124066428Y-87392000D02*
X124066428Y-88153904D01*
X123447380Y-88820571D02*
X123447380Y-88915809D01*
X123495000Y-89011047D01*
X123542619Y-89058666D01*
X123637857Y-89106285D01*
X123828333Y-89153904D01*
X124066428Y-89153904D01*
X124256904Y-89106285D01*
X124352142Y-89058666D01*
X124399761Y-89011047D01*
X124447380Y-88915809D01*
X124447380Y-88820571D01*
X124399761Y-88725333D01*
X124352142Y-88677714D01*
X124256904Y-88630095D01*
X124066428Y-88582476D01*
X123828333Y-88582476D01*
X123637857Y-88630095D01*
X123542619Y-88677714D01*
X123495000Y-88725333D01*
X123447380Y-88820571D01*
X123542619Y-89534857D02*
X123495000Y-89582476D01*
X123447380Y-89677714D01*
X123447380Y-89915809D01*
X123495000Y-90011047D01*
X123542619Y-90058666D01*
X123637857Y-90106285D01*
X123733095Y-90106285D01*
X123875952Y-90058666D01*
X124447380Y-89487238D01*
X124447380Y-90106285D01*
X124066428Y-90534857D02*
X124066428Y-91296761D01*
X124447380Y-92296761D02*
X124447380Y-91725333D01*
X124447380Y-92011047D02*
X123447380Y-92011047D01*
X123590238Y-91915809D01*
X123685476Y-91820571D01*
X123733095Y-91725333D01*
X123447380Y-92915809D02*
X123447380Y-93011047D01*
X123495000Y-93106285D01*
X123542619Y-93153904D01*
X123637857Y-93201523D01*
X123828333Y-93249142D01*
X124066428Y-93249142D01*
X124256904Y-93201523D01*
X124352142Y-93153904D01*
X124399761Y-93106285D01*
X124447380Y-93011047D01*
X124447380Y-92915809D01*
X124399761Y-92820571D01*
X124352142Y-92772952D01*
X124256904Y-92725333D01*
X124066428Y-92677714D01*
X123828333Y-92677714D01*
X123637857Y-92725333D01*
X123542619Y-92772952D01*
X123495000Y-92820571D01*
X123447380Y-92915809D01*
%LPC*%
D11*
%TO.C,J102*%
X129515000Y-97790000D03*
D12*
X129515000Y-95250000D03*
X129515000Y-92710000D03*
X129515000Y-90170000D03*
X129515000Y-87630000D03*
X129515000Y-85090000D03*
X129515000Y-82550000D03*
X129515000Y-80010000D03*
%TD*%
D13*
%TO.C,U101*%
X146050000Y-80010000D03*
D14*
X146050000Y-82550000D03*
X146050000Y-85090000D03*
X146050000Y-87630000D03*
X146050000Y-90170000D03*
X146050000Y-92710000D03*
X146050000Y-95250000D03*
X146050000Y-97790000D03*
D13*
X133350000Y-97790000D03*
D14*
X133350000Y-95250000D03*
X133350000Y-92710000D03*
X133350000Y-90170000D03*
X133350000Y-87630000D03*
X133350000Y-85090000D03*
X133350000Y-82550000D03*
X133350000Y-80010000D03*
X140970000Y-97790000D03*
X143510000Y-97790000D03*
X142240000Y-96139000D03*
%TD*%
D11*
%TO.C,J101*%
X117564000Y-80025000D03*
D12*
X117564000Y-82565000D03*
X117564000Y-85105000D03*
X117564000Y-87645000D03*
X117564000Y-90185000D03*
X117564000Y-92725000D03*
X117564000Y-95265000D03*
X117564000Y-97805000D03*
%TD*%
D11*
%TO.C,J103*%
X113792000Y-87650000D03*
D12*
X113792000Y-90190000D03*
%TD*%
M02*
