%TF.GenerationSoftware,KiCad,Pcbnew,(6.0.11-0)*%
%TF.CreationDate,2023-02-12T12:51:19-05:00*%
%TF.ProjectId,TMC-Breakout,544d432d-4272-4656-916b-6f75742e6b69,1.0.0*%
%TF.SameCoordinates,Original*%
%TF.FileFunction,Copper,L1,Top*%
%TF.FilePolarity,Positive*%
%FSLAX46Y46*%
G04 Gerber Fmt 4.6, Leading zero omitted, Abs format (unit mm)*
G04 Created by KiCad (PCBNEW (6.0.11-0)) date 2023-02-12 12:51:19*
%MOMM*%
%LPD*%
G01*
G04 APERTURE LIST*
G04 Aperture macros list*
%AMRoundRect*
0 Rectangle with rounded corners*
0 $1 Rounding radius*
0 $2 $3 $4 $5 $6 $7 $8 $9 X,Y pos of 4 corners*
0 Add a 4 corners polygon primitive as box body*
4,1,4,$2,$3,$4,$5,$6,$7,$8,$9,$2,$3,0*
0 Add four circle primitives for the rounded corners*
1,1,$1+$1,$2,$3*
1,1,$1+$1,$4,$5*
1,1,$1+$1,$6,$7*
1,1,$1+$1,$8,$9*
0 Add four rect primitives between the rounded corners*
20,1,$1+$1,$2,$3,$4,$5,0*
20,1,$1+$1,$4,$5,$6,$7,0*
20,1,$1+$1,$6,$7,$8,$9,0*
20,1,$1+$1,$8,$9,$2,$3,0*%
G04 Aperture macros list end*
%TA.AperFunction,SMDPad,CuDef*%
%ADD10RoundRect,0.237500X-0.250000X-0.237500X0.250000X-0.237500X0.250000X0.237500X-0.250000X0.237500X0*%
%TD*%
%TA.AperFunction,SMDPad,CuDef*%
%ADD11RoundRect,0.237500X0.250000X0.237500X-0.250000X0.237500X-0.250000X-0.237500X0.250000X-0.237500X0*%
%TD*%
%TA.AperFunction,SMDPad,CuDef*%
%ADD12RoundRect,0.237500X-0.237500X0.287500X-0.237500X-0.287500X0.237500X-0.287500X0.237500X0.287500X0*%
%TD*%
%TA.AperFunction,SMDPad,CuDef*%
%ADD13RoundRect,0.237500X-0.287500X-0.237500X0.287500X-0.237500X0.287500X0.237500X-0.287500X0.237500X0*%
%TD*%
%TA.AperFunction,SMDPad,CuDef*%
%ADD14RoundRect,0.237500X-0.237500X0.250000X-0.237500X-0.250000X0.237500X-0.250000X0.237500X0.250000X0*%
%TD*%
%TA.AperFunction,ComponentPad*%
%ADD15R,1.700000X1.700000*%
%TD*%
%TA.AperFunction,ComponentPad*%
%ADD16O,1.700000X1.700000*%
%TD*%
%TA.AperFunction,SMDPad,CuDef*%
%ADD17RoundRect,0.237500X0.287500X0.237500X-0.287500X0.237500X-0.287500X-0.237500X0.287500X-0.237500X0*%
%TD*%
%TA.AperFunction,SMDPad,CuDef*%
%ADD18RoundRect,0.237500X0.237500X-0.287500X0.237500X0.287500X-0.237500X0.287500X-0.237500X-0.287500X0*%
%TD*%
%TA.AperFunction,ComponentPad*%
%ADD19R,1.524000X1.524000*%
%TD*%
%TA.AperFunction,ComponentPad*%
%ADD20C,1.524000*%
%TD*%
%TA.AperFunction,SMDPad,CuDef*%
%ADD21RoundRect,0.237500X0.237500X-0.250000X0.237500X0.250000X-0.237500X0.250000X-0.237500X-0.250000X0*%
%TD*%
%TA.AperFunction,ViaPad*%
%ADD22C,0.800000*%
%TD*%
%TA.AperFunction,Conductor*%
%ADD23C,0.254000*%
%TD*%
%TA.AperFunction,Conductor*%
%ADD24C,1.270000*%
%TD*%
G04 APERTURE END LIST*
D10*
%TO.P,R106,1*%
%TO.N,Net-(D106-Pad1)*%
X125071500Y-85997750D03*
%TO.P,R106,2*%
%TO.N,GND*%
X126896500Y-85997750D03*
%TD*%
D11*
%TO.P,R103,1*%
%TO.N,Net-(D103-Pad1)*%
X122070500Y-85997750D03*
%TO.P,R103,2*%
%TO.N,GND*%
X120245500Y-85997750D03*
%TD*%
D12*
%TO.P,D105,1,K*%
%TO.N,Net-(D105-Pad1)*%
X114808000Y-82945000D03*
%TO.P,D105,2,A*%
%TO.N,/DIAG1*%
X114808000Y-84695000D03*
%TD*%
D13*
%TO.P,D106,1,K*%
%TO.N,Net-(D106-Pad1)*%
X125109000Y-83203750D03*
%TO.P,D106,2,A*%
%TO.N,VCC*%
X126859000Y-83203750D03*
%TD*%
D14*
%TO.P,R104,1*%
%TO.N,Net-(D104-Pad1)*%
X114808000Y-96623500D03*
%TO.P,R104,2*%
%TO.N,GND*%
X114808000Y-98448500D03*
%TD*%
D15*
%TO.P,J102,1,Pin_1*%
%TO.N,VDD*%
X129515000Y-97790000D03*
D16*
%TO.P,J102,2,Pin_2*%
%TO.N,GND*%
X129515000Y-95250000D03*
%TO.P,J102,3,Pin_3*%
%TO.N,/M2B*%
X129515000Y-92710000D03*
%TO.P,J102,4,Pin_4*%
%TO.N,/M2A*%
X129515000Y-90170000D03*
%TO.P,J102,5,Pin_5*%
%TO.N,/M1A*%
X129515000Y-87630000D03*
%TO.P,J102,6,Pin_6*%
%TO.N,/M1B*%
X129515000Y-85090000D03*
%TO.P,J102,7,Pin_7*%
%TO.N,VCC*%
X129515000Y-82550000D03*
%TO.P,J102,8,Pin_8*%
%TO.N,GND*%
X129515000Y-80010000D03*
%TD*%
D11*
%TO.P,R101,1*%
%TO.N,VCC*%
X125626500Y-98552000D03*
%TO.P,R101,2*%
%TO.N,Net-(D101-Pad2)*%
X123801500Y-98552000D03*
%TD*%
D17*
%TO.P,D102,1,K*%
%TO.N,Net-(D102-Pad1)*%
X122033000Y-80518000D03*
%TO.P,D102,2,A*%
%TO.N,/DIR*%
X120283000Y-80518000D03*
%TD*%
D18*
%TO.P,D104,1,K*%
%TO.N,Net-(D104-Pad1)*%
X114808000Y-94855000D03*
%TO.P,D104,2,A*%
%TO.N,/DIAG0*%
X114808000Y-93105000D03*
%TD*%
D19*
%TO.P,U101,JP1_1,DIR*%
%TO.N,/DIR*%
X146050000Y-80010000D03*
D20*
%TO.P,U101,JP1_2,STEP*%
%TO.N,/STEP*%
X146050000Y-82550000D03*
%TO.P,U101,JP1_3,DC0*%
%TO.N,/DCO*%
X146050000Y-85090000D03*
%TO.P,U101,JP1_4,SDO/CFG0*%
%TO.N,/CFG0*%
X146050000Y-87630000D03*
%TO.P,U101,JP1_5,CS/CFG3*%
%TO.N,/CFG3*%
X146050000Y-90170000D03*
%TO.P,U101,JP1_6,SCK/CFG2*%
%TO.N,/CFG2*%
X146050000Y-92710000D03*
%TO.P,U101,JP1_7,SDI/CFG1*%
%TO.N,/CFG1*%
X146050000Y-95250000D03*
%TO.P,U101,JP1_8,EN*%
%TO.N,/~{EN}*%
X146050000Y-97790000D03*
D19*
%TO.P,U101,JP2_1,VM*%
%TO.N,VDD*%
X133350000Y-97790000D03*
D20*
%TO.P,U101,JP2_2,GND*%
%TO.N,GND*%
X133350000Y-95250000D03*
%TO.P,U101,JP2_3,M2B*%
%TO.N,/M2B*%
X133350000Y-92710000D03*
%TO.P,U101,JP2_4,M2A*%
%TO.N,/M2A*%
X133350000Y-90170000D03*
%TO.P,U101,JP2_5,M1A*%
%TO.N,/M1A*%
X133350000Y-87630000D03*
%TO.P,U101,JP2_6,M1B*%
%TO.N,/M1B*%
X133350000Y-85090000D03*
%TO.P,U101,JP2_7,VIO*%
%TO.N,VCC*%
X133350000Y-82550000D03*
%TO.P,U101,JP2_8,GND*%
%TO.N,GND*%
X133350000Y-80010000D03*
%TO.P,U101,JP3_1,DIAG0*%
%TO.N,/DIAG0*%
X140970000Y-97790000D03*
%TO.P,U101,JP3_2,DIAG1*%
%TO.N,/DIAG1*%
X143510000Y-97790000D03*
%TO.P,U101,VREF,VREF*%
%TO.N,unconnected-(U101-PadVREF)*%
X142240000Y-96139000D03*
%TD*%
D13*
%TO.P,D101,1,K*%
%TO.N,/~{EN}*%
X120283000Y-98552000D03*
%TO.P,D101,2,A*%
%TO.N,Net-(D101-Pad2)*%
X122033000Y-98552000D03*
%TD*%
D15*
%TO.P,J101,1,Pin_1*%
%TO.N,/DIR*%
X117564000Y-80025000D03*
D16*
%TO.P,J101,2,Pin_2*%
%TO.N,/STEP*%
X117564000Y-82565000D03*
%TO.P,J101,3,Pin_3*%
%TO.N,/DCO*%
X117564000Y-85105000D03*
%TO.P,J101,4,Pin_4*%
%TO.N,/CFG0*%
X117564000Y-87645000D03*
%TO.P,J101,5,Pin_5*%
%TO.N,/CFG3*%
X117564000Y-90185000D03*
%TO.P,J101,6,Pin_6*%
%TO.N,/CFG2*%
X117564000Y-92725000D03*
%TO.P,J101,7,Pin_7*%
%TO.N,/CFG1*%
X117564000Y-95265000D03*
%TO.P,J101,8,Pin_8*%
%TO.N,/~{EN}*%
X117564000Y-97805000D03*
%TD*%
D21*
%TO.P,R105,1*%
%TO.N,Net-(D105-Pad1)*%
X114808000Y-81176500D03*
%TO.P,R105,2*%
%TO.N,GND*%
X114808000Y-79351500D03*
%TD*%
%TO.P,R102,1*%
%TO.N,Net-(D102-Pad1)*%
X123952000Y-81430500D03*
%TO.P,R102,2*%
%TO.N,GND*%
X123952000Y-79605500D03*
%TD*%
D15*
%TO.P,J103,1,Pin_1*%
%TO.N,/DIAG1*%
X113792000Y-87650000D03*
D16*
%TO.P,J103,2,Pin_2*%
%TO.N,/DIAG0*%
X113792000Y-90190000D03*
%TD*%
D17*
%TO.P,D103,1,K*%
%TO.N,Net-(D103-Pad1)*%
X122033000Y-83203750D03*
%TO.P,D103,2,A*%
%TO.N,/STEP*%
X120283000Y-83203750D03*
%TD*%
D22*
%TO.N,VCC*%
X126746000Y-98460500D03*
X126746000Y-95758000D03*
%TD*%
D23*
%TO.N,/DIR*%
X120283000Y-80518000D02*
X119790000Y-80025000D01*
X119790000Y-80025000D02*
X117564000Y-80025000D01*
%TO.N,/STEP*%
X120283000Y-83203750D02*
X119644250Y-82565000D01*
X119644250Y-82565000D02*
X117564000Y-82565000D01*
%TO.N,/~{EN}*%
X145542000Y-97282000D02*
X145542000Y-97298079D01*
X145542000Y-97298079D02*
X143873079Y-98967000D01*
X126746000Y-97282000D02*
X119888000Y-97282000D01*
X146050000Y-97790000D02*
X145542000Y-97282000D01*
X119888000Y-97282000D02*
X119365000Y-97805000D01*
X143873079Y-98967000D02*
X128431000Y-98967000D01*
X119365000Y-97805000D02*
X117564000Y-97805000D01*
X120283000Y-98552000D02*
X119536000Y-97805000D01*
X128431000Y-98967000D02*
X126746000Y-97282000D01*
X119536000Y-97805000D02*
X117564000Y-97805000D01*
D24*
%TO.N,VDD*%
X129515000Y-97790000D02*
X133350000Y-97790000D01*
D23*
%TO.N,GND*%
X128312919Y-80010000D02*
X125984000Y-82338919D01*
X125984000Y-85085250D02*
X126896500Y-85997750D01*
X123194500Y-78848000D02*
X123952000Y-79605500D01*
X112615000Y-81544500D02*
X112615000Y-96255500D01*
X112615000Y-96255500D02*
X114808000Y-98448500D01*
X129515000Y-80010000D02*
X128312919Y-80010000D01*
X114808000Y-79351500D02*
X115311500Y-78848000D01*
X114808000Y-79351500D02*
X112615000Y-81544500D01*
X115311500Y-78848000D02*
X123194500Y-78848000D01*
X125984000Y-82338919D02*
X125984000Y-85085250D01*
D24*
%TO.N,/M2B*%
X129515000Y-92710000D02*
X133350000Y-92710000D01*
%TO.N,/M2A*%
X129515000Y-90170000D02*
X133350000Y-90170000D01*
%TO.N,/M1A*%
X129515000Y-87630000D02*
X133350000Y-87630000D01*
%TO.N,/M1B*%
X129515000Y-85090000D02*
X133350000Y-85090000D01*
D23*
%TO.N,VCC*%
X125730000Y-98448500D02*
X125665500Y-98513000D01*
X127512750Y-82550000D02*
X126859000Y-83203750D01*
X127711000Y-93777000D02*
X126746000Y-94742000D01*
X126746000Y-94742000D02*
X126746000Y-95758000D01*
X129515000Y-82550000D02*
X127512750Y-82550000D01*
X126859000Y-83203750D02*
X127711000Y-84055750D01*
D24*
X129515000Y-82550000D02*
X133350000Y-82550000D01*
D23*
X126746000Y-98460500D02*
X125718000Y-98460500D01*
X125665500Y-98513000D02*
X125626500Y-98513000D01*
X127711000Y-84055750D02*
X127711000Y-93777000D01*
X125718000Y-98460500D02*
X125626500Y-98552000D01*
%TO.N,/DIAG0*%
X114808000Y-93067500D02*
X113792000Y-92051500D01*
X113792000Y-92051500D02*
X113792000Y-90190000D01*
%TO.N,/DIAG1*%
X140970000Y-95885000D02*
X140335000Y-96520000D01*
X117154470Y-96520000D02*
X115761000Y-95126530D01*
X113792000Y-86002500D02*
X114808000Y-84986500D01*
X143510000Y-97790000D02*
X143510000Y-95868921D01*
X115761000Y-89403000D02*
X114008000Y-87650000D01*
X143510000Y-95868921D02*
X142691079Y-95050000D01*
X113792000Y-87650000D02*
X113792000Y-86002500D01*
X140970000Y-95868921D02*
X140970000Y-95885000D01*
X115761000Y-95126530D02*
X115761000Y-89403000D01*
X141788921Y-95050000D02*
X140970000Y-95868921D01*
X140335000Y-96520000D02*
X117154470Y-96520000D01*
X142691079Y-95050000D02*
X141788921Y-95050000D01*
%TO.N,Net-(D101-Pad2)*%
X123801500Y-98552000D02*
X122033000Y-98552000D01*
%TO.N,Net-(D102-Pad1)*%
X122033000Y-80518000D02*
X123039500Y-80518000D01*
X123039500Y-80518000D02*
X123952000Y-81430500D01*
%TO.N,Net-(D103-Pad1)*%
X122033000Y-83203750D02*
X122033000Y-85960250D01*
%TO.N,Net-(D104-Pad1)*%
X114808000Y-94855000D02*
X114808000Y-96623500D01*
%TO.N,Net-(D105-Pad1)*%
X114808000Y-81176500D02*
X114808000Y-82945000D01*
%TO.N,Net-(D106-Pad1)*%
X125109000Y-83058000D02*
X125109000Y-85960250D01*
X125109000Y-85960250D02*
X125071500Y-85997750D01*
%TD*%
%TA.AperFunction,Conductor*%
%TO.N,GND*%
G36*
X112477012Y-90599125D02*
G01*
X112511243Y-90646945D01*
X112575266Y-90804616D01*
X112577965Y-90809020D01*
X112685971Y-90985270D01*
X112691987Y-90995088D01*
X112838250Y-91163938D01*
X112944294Y-91251977D01*
X113000123Y-91298327D01*
X113010126Y-91306632D01*
X113094072Y-91355686D01*
X113142794Y-91407324D01*
X113156500Y-91464473D01*
X113156500Y-91972480D01*
X113155970Y-91983714D01*
X113154292Y-91991219D01*
X113154541Y-91999138D01*
X113156438Y-92059512D01*
X113156500Y-92063469D01*
X113156500Y-92091483D01*
X113156996Y-92095408D01*
X113156996Y-92095409D01*
X113157008Y-92095504D01*
X113157941Y-92107349D01*
X113159335Y-92151705D01*
X113161547Y-92159317D01*
X113165013Y-92171248D01*
X113169023Y-92190612D01*
X113171573Y-92210799D01*
X113174489Y-92218163D01*
X113174490Y-92218168D01*
X113187907Y-92252056D01*
X113191752Y-92263285D01*
X113204131Y-92305893D01*
X113208169Y-92312720D01*
X113208170Y-92312723D01*
X113214488Y-92323406D01*
X113223188Y-92341164D01*
X113227761Y-92352715D01*
X113227765Y-92352721D01*
X113230681Y-92360088D01*
X113235339Y-92366499D01*
X113235340Y-92366501D01*
X113256764Y-92395988D01*
X113263281Y-92405910D01*
X113281826Y-92437268D01*
X113281829Y-92437272D01*
X113285866Y-92444098D01*
X113300250Y-92458482D01*
X113313091Y-92473516D01*
X113325058Y-92489987D01*
X113331166Y-92495040D01*
X113359255Y-92518277D01*
X113368035Y-92526267D01*
X113787595Y-92945827D01*
X113821621Y-93008139D01*
X113824500Y-93034922D01*
X113824500Y-93442072D01*
X113824837Y-93445318D01*
X113824837Y-93445322D01*
X113834005Y-93533678D01*
X113835293Y-93546093D01*
X113837474Y-93552629D01*
X113837474Y-93552631D01*
X113880995Y-93683080D01*
X113890346Y-93711107D01*
X113912576Y-93747031D01*
X113968211Y-93836935D01*
X113981884Y-93859031D01*
X114013787Y-93890879D01*
X114047866Y-93953159D01*
X114042863Y-94023979D01*
X114013943Y-94069067D01*
X114011346Y-94071669D01*
X113981071Y-94101997D01*
X113977231Y-94108227D01*
X113977230Y-94108228D01*
X113898005Y-94236755D01*
X113889791Y-94250080D01*
X113835026Y-94415191D01*
X113834326Y-94422027D01*
X113834325Y-94422030D01*
X113831879Y-94445907D01*
X113824500Y-94517928D01*
X113824500Y-95192072D01*
X113824837Y-95195318D01*
X113824837Y-95195322D01*
X113832067Y-95265000D01*
X113835293Y-95296093D01*
X113890346Y-95461107D01*
X113981884Y-95609031D01*
X113987066Y-95614204D01*
X114041786Y-95668828D01*
X114075866Y-95731111D01*
X114070863Y-95801931D01*
X114041943Y-95847019D01*
X113981071Y-95907997D01*
X113977231Y-95914227D01*
X113977230Y-95914228D01*
X113915259Y-96014764D01*
X113889791Y-96056080D01*
X113835026Y-96221191D01*
X113834326Y-96228027D01*
X113834325Y-96228030D01*
X113833587Y-96235234D01*
X113824500Y-96323928D01*
X113824500Y-96923072D01*
X113824837Y-96926318D01*
X113824837Y-96926322D01*
X113828988Y-96966322D01*
X113835293Y-97027093D01*
X113837474Y-97033629D01*
X113837474Y-97033631D01*
X113881768Y-97166395D01*
X113890346Y-97192107D01*
X113981884Y-97340031D01*
X114089141Y-97447101D01*
X114123220Y-97509382D01*
X114118217Y-97580202D01*
X114089296Y-97625291D01*
X113986637Y-97728129D01*
X113977625Y-97739540D01*
X113894088Y-97875063D01*
X113887944Y-97888241D01*
X113837685Y-98039766D01*
X113834819Y-98053132D01*
X113825328Y-98145770D01*
X113825000Y-98152185D01*
X113825000Y-98176385D01*
X113829475Y-98191624D01*
X113830865Y-98192829D01*
X113838548Y-98194500D01*
X115772885Y-98194500D01*
X115788124Y-98190025D01*
X115789329Y-98188635D01*
X115791000Y-98180952D01*
X115791000Y-98152234D01*
X115790663Y-98145718D01*
X115780925Y-98051868D01*
X115778032Y-98038472D01*
X115727512Y-97887047D01*
X115721347Y-97873885D01*
X115637574Y-97738508D01*
X115628540Y-97727110D01*
X115526860Y-97625607D01*
X115492781Y-97563324D01*
X115497784Y-97492504D01*
X115526705Y-97447416D01*
X115527022Y-97447099D01*
X115634929Y-97339003D01*
X115659321Y-97299432D01*
X115722369Y-97197150D01*
X115722370Y-97197148D01*
X115726209Y-97190920D01*
X115780974Y-97025809D01*
X115791500Y-96923072D01*
X115791500Y-96359952D01*
X115811502Y-96291831D01*
X115865158Y-96245338D01*
X115935432Y-96235234D01*
X116000012Y-96264728D01*
X116006595Y-96270857D01*
X116504633Y-96768895D01*
X116538659Y-96831207D01*
X116533594Y-96902022D01*
X116510614Y-96938697D01*
X116511457Y-96939379D01*
X116508200Y-96943401D01*
X116504629Y-96947138D01*
X116501715Y-96951410D01*
X116501714Y-96951411D01*
X116445627Y-97033631D01*
X116378743Y-97131680D01*
X116354470Y-97183972D01*
X116329639Y-97237467D01*
X116284688Y-97334305D01*
X116224989Y-97549570D01*
X116201251Y-97771695D01*
X116201548Y-97776848D01*
X116201548Y-97776851D01*
X116202622Y-97795475D01*
X116214110Y-97994715D01*
X116215247Y-97999761D01*
X116215248Y-97999767D01*
X116226990Y-98051868D01*
X116263222Y-98212639D01*
X116347266Y-98419616D01*
X116349965Y-98424020D01*
X116463987Y-98610088D01*
X116462896Y-98610757D01*
X116484941Y-98671867D01*
X116469102Y-98741074D01*
X116418361Y-98790732D01*
X116359172Y-98805500D01*
X115910247Y-98805500D01*
X115842126Y-98785498D01*
X115795633Y-98731842D01*
X115789351Y-98714999D01*
X115786525Y-98705376D01*
X115785135Y-98704171D01*
X115777452Y-98702500D01*
X113843115Y-98702500D01*
X113827876Y-98706975D01*
X113824819Y-98710503D01*
X113793098Y-98768596D01*
X113730786Y-98802621D01*
X113704003Y-98805500D01*
X112394500Y-98805500D01*
X112326379Y-98785498D01*
X112279886Y-98731842D01*
X112268500Y-98679500D01*
X112268500Y-90694349D01*
X112288502Y-90626228D01*
X112342158Y-90579735D01*
X112412432Y-90569631D01*
X112477012Y-90599125D01*
G37*
%TD.AperFunction*%
%TA.AperFunction,Conductor*%
G36*
X122942352Y-79014502D02*
G01*
X122988845Y-79068158D01*
X122998949Y-79138432D01*
X122993824Y-79160167D01*
X122981685Y-79196765D01*
X122978819Y-79210132D01*
X122969328Y-79302770D01*
X122969000Y-79309185D01*
X122969000Y-79333385D01*
X122973475Y-79348624D01*
X122974865Y-79349829D01*
X122982548Y-79351500D01*
X124916885Y-79351500D01*
X124932124Y-79347025D01*
X124933329Y-79345635D01*
X124935000Y-79337952D01*
X124935000Y-79309234D01*
X124934663Y-79302718D01*
X124924925Y-79208868D01*
X124922032Y-79195471D01*
X124910323Y-79160376D01*
X124907739Y-79089426D01*
X124943923Y-79028342D01*
X125007387Y-78996518D01*
X125029847Y-78994500D01*
X128325293Y-78994500D01*
X128393414Y-79014502D01*
X128439907Y-79068158D01*
X128450011Y-79138432D01*
X128429381Y-79191505D01*
X128333095Y-79332655D01*
X128328000Y-79341623D01*
X128238338Y-79534783D01*
X128234775Y-79544470D01*
X128179389Y-79744183D01*
X128180912Y-79752607D01*
X128193292Y-79756000D01*
X130833344Y-79756000D01*
X130846875Y-79752027D01*
X130848180Y-79742947D01*
X130806214Y-79575875D01*
X130802894Y-79566124D01*
X130717972Y-79370814D01*
X130713105Y-79361739D01*
X130601317Y-79188940D01*
X130581110Y-79120880D01*
X130600906Y-79052699D01*
X130654421Y-79006045D01*
X130707109Y-78994500D01*
X132268634Y-78994500D01*
X132336755Y-79014502D01*
X132383248Y-79068158D01*
X132393352Y-79138432D01*
X132371847Y-79192770D01*
X132249102Y-79368070D01*
X132243624Y-79377556D01*
X132154355Y-79568993D01*
X132150609Y-79579285D01*
X132095941Y-79783309D01*
X132094038Y-79794104D01*
X132075628Y-80004525D01*
X132075628Y-80015475D01*
X132094038Y-80225896D01*
X132095941Y-80236691D01*
X132150609Y-80440715D01*
X132154355Y-80451007D01*
X132243623Y-80642441D01*
X132249103Y-80651932D01*
X132279794Y-80695765D01*
X132290271Y-80704140D01*
X132303718Y-80697072D01*
X133260905Y-79739885D01*
X133323217Y-79705859D01*
X133394032Y-79710924D01*
X133439095Y-79739885D01*
X134397003Y-80697793D01*
X134408777Y-80704223D01*
X134420793Y-80694926D01*
X134450897Y-80651932D01*
X134456377Y-80642441D01*
X134545645Y-80451007D01*
X134549391Y-80440715D01*
X134604059Y-80236691D01*
X134605962Y-80225896D01*
X134624372Y-80015475D01*
X134624372Y-80004525D01*
X134605962Y-79794104D01*
X134604059Y-79783309D01*
X134549391Y-79579285D01*
X134545645Y-79568993D01*
X134456376Y-79377556D01*
X134450898Y-79368070D01*
X134328153Y-79192770D01*
X134305465Y-79125496D01*
X134322750Y-79056636D01*
X134374520Y-79008052D01*
X134431366Y-78994500D01*
X144661842Y-78994500D01*
X144729963Y-79014502D01*
X144776456Y-79068158D01*
X144786398Y-79137303D01*
X144786255Y-79137684D01*
X144785661Y-79143156D01*
X144785660Y-79143159D01*
X144783790Y-79160376D01*
X144779500Y-79199866D01*
X144779500Y-80820134D01*
X144786255Y-80882316D01*
X144837385Y-81018705D01*
X144924739Y-81135261D01*
X145041295Y-81222615D01*
X145177684Y-81273745D01*
X145239866Y-81280500D01*
X145248364Y-81280500D01*
X145316485Y-81300502D01*
X145362978Y-81354158D01*
X145373082Y-81424432D01*
X145343588Y-81489012D01*
X145320635Y-81509713D01*
X145234730Y-81569864D01*
X145234727Y-81569866D01*
X145230219Y-81573023D01*
X145073023Y-81730219D01*
X145069866Y-81734727D01*
X145069864Y-81734730D01*
X144948669Y-81907815D01*
X144945512Y-81912324D01*
X144943189Y-81917306D01*
X144943186Y-81917311D01*
X144858325Y-82099297D01*
X144851560Y-82113804D01*
X144850138Y-82119112D01*
X144850137Y-82119114D01*
X144842932Y-82146003D01*
X144794022Y-82328537D01*
X144774647Y-82550000D01*
X144794022Y-82771463D01*
X144851560Y-82986196D01*
X144853882Y-82991177D01*
X144853883Y-82991178D01*
X144943186Y-83182689D01*
X144943189Y-83182694D01*
X144945512Y-83187676D01*
X144948668Y-83192183D01*
X144948669Y-83192185D01*
X145034500Y-83314764D01*
X145073023Y-83369781D01*
X145230219Y-83526977D01*
X145234727Y-83530134D01*
X145234730Y-83530136D01*
X145253062Y-83542972D01*
X145412323Y-83654488D01*
X145417305Y-83656811D01*
X145417310Y-83656814D01*
X145522373Y-83705805D01*
X145575658Y-83752722D01*
X145595119Y-83820999D01*
X145574577Y-83888959D01*
X145522373Y-83934195D01*
X145417311Y-83983186D01*
X145417306Y-83983189D01*
X145412324Y-83985512D01*
X145407817Y-83988668D01*
X145407815Y-83988669D01*
X145234730Y-84109864D01*
X145234727Y-84109866D01*
X145230219Y-84113023D01*
X145073023Y-84270219D01*
X145069866Y-84274727D01*
X145069864Y-84274730D01*
X144948669Y-84447815D01*
X144945512Y-84452324D01*
X144943189Y-84457306D01*
X144943186Y-84457311D01*
X144858325Y-84639297D01*
X144851560Y-84653804D01*
X144794022Y-84868537D01*
X144774647Y-85090000D01*
X144794022Y-85311463D01*
X144829222Y-85442830D01*
X144848487Y-85514726D01*
X144851560Y-85526196D01*
X144853882Y-85531177D01*
X144853883Y-85531178D01*
X144943186Y-85722689D01*
X144943189Y-85722694D01*
X144945512Y-85727676D01*
X144948668Y-85732183D01*
X144948669Y-85732185D01*
X145047610Y-85873487D01*
X145073023Y-85909781D01*
X145230219Y-86066977D01*
X145234727Y-86070134D01*
X145234730Y-86070136D01*
X145298990Y-86115131D01*
X145412323Y-86194488D01*
X145417305Y-86196811D01*
X145417310Y-86196814D01*
X145522373Y-86245805D01*
X145575658Y-86292722D01*
X145595119Y-86360999D01*
X145574577Y-86428959D01*
X145522373Y-86474195D01*
X145417311Y-86523186D01*
X145417306Y-86523189D01*
X145412324Y-86525512D01*
X145407817Y-86528668D01*
X145407815Y-86528669D01*
X145234730Y-86649864D01*
X145234727Y-86649866D01*
X145230219Y-86653023D01*
X145073023Y-86810219D01*
X145069866Y-86814727D01*
X145069864Y-86814730D01*
X144955630Y-86977874D01*
X144945512Y-86992324D01*
X144943189Y-86997306D01*
X144943186Y-86997311D01*
X144858325Y-87179297D01*
X144851560Y-87193804D01*
X144794022Y-87408537D01*
X144774647Y-87630000D01*
X144794022Y-87851463D01*
X144851560Y-88066196D01*
X144853882Y-88071177D01*
X144853883Y-88071178D01*
X144943186Y-88262689D01*
X144943189Y-88262694D01*
X144945512Y-88267676D01*
X144948668Y-88272183D01*
X144948669Y-88272185D01*
X145034500Y-88394764D01*
X145073023Y-88449781D01*
X145230219Y-88606977D01*
X145234727Y-88610134D01*
X145234730Y-88610136D01*
X145298990Y-88655131D01*
X145412323Y-88734488D01*
X145417305Y-88736811D01*
X145417310Y-88736814D01*
X145522373Y-88785805D01*
X145575658Y-88832722D01*
X145595119Y-88900999D01*
X145574577Y-88968959D01*
X145522373Y-89014195D01*
X145417311Y-89063186D01*
X145417306Y-89063189D01*
X145412324Y-89065512D01*
X145407817Y-89068668D01*
X145407815Y-89068669D01*
X145234730Y-89189864D01*
X145234727Y-89189866D01*
X145230219Y-89193023D01*
X145073023Y-89350219D01*
X145069866Y-89354727D01*
X145069864Y-89354730D01*
X144948669Y-89527815D01*
X144945512Y-89532324D01*
X144943189Y-89537306D01*
X144943186Y-89537311D01*
X144939209Y-89545840D01*
X144851560Y-89733804D01*
X144794022Y-89948537D01*
X144774647Y-90170000D01*
X144794022Y-90391463D01*
X144851560Y-90606196D01*
X144853882Y-90611177D01*
X144853883Y-90611178D01*
X144943186Y-90802689D01*
X144943189Y-90802694D01*
X144945512Y-90807676D01*
X144948668Y-90812183D01*
X144948669Y-90812185D01*
X145066269Y-90980135D01*
X145073023Y-90989781D01*
X145230219Y-91146977D01*
X145234727Y-91150134D01*
X145234730Y-91150136D01*
X145298990Y-91195131D01*
X145412323Y-91274488D01*
X145417305Y-91276811D01*
X145417310Y-91276814D01*
X145522373Y-91325805D01*
X145575658Y-91372722D01*
X145595119Y-91440999D01*
X145574577Y-91508959D01*
X145522373Y-91554195D01*
X145417311Y-91603186D01*
X145417306Y-91603189D01*
X145412324Y-91605512D01*
X145407817Y-91608668D01*
X145407815Y-91608669D01*
X145234730Y-91729864D01*
X145234727Y-91729866D01*
X145230219Y-91733023D01*
X145073023Y-91890219D01*
X145069866Y-91894727D01*
X145069864Y-91894730D01*
X144951712Y-92063469D01*
X144945512Y-92072324D01*
X144943189Y-92077306D01*
X144943186Y-92077311D01*
X144861701Y-92252056D01*
X144851560Y-92273804D01*
X144794022Y-92488537D01*
X144774647Y-92710000D01*
X144794022Y-92931463D01*
X144851560Y-93146196D01*
X144853882Y-93151177D01*
X144853883Y-93151178D01*
X144943186Y-93342689D01*
X144943189Y-93342694D01*
X144945512Y-93347676D01*
X144948668Y-93352183D01*
X144948669Y-93352185D01*
X145061811Y-93513768D01*
X145073023Y-93529781D01*
X145230219Y-93686977D01*
X145234727Y-93690134D01*
X145234730Y-93690136D01*
X145298990Y-93735131D01*
X145412323Y-93814488D01*
X145417305Y-93816811D01*
X145417310Y-93816814D01*
X145522373Y-93865805D01*
X145575658Y-93912722D01*
X145595119Y-93980999D01*
X145574577Y-94048959D01*
X145522373Y-94094195D01*
X145417311Y-94143186D01*
X145417306Y-94143189D01*
X145412324Y-94145512D01*
X145407817Y-94148668D01*
X145407815Y-94148669D01*
X145234730Y-94269864D01*
X145234727Y-94269866D01*
X145230219Y-94273023D01*
X145073023Y-94430219D01*
X145069866Y-94434727D01*
X145069864Y-94434730D01*
X144949151Y-94607127D01*
X144945512Y-94612324D01*
X144943189Y-94617306D01*
X144943186Y-94617311D01*
X144898076Y-94714050D01*
X144851560Y-94813804D01*
X144794022Y-95028537D01*
X144774647Y-95250000D01*
X144794022Y-95471463D01*
X144851560Y-95686196D01*
X144853882Y-95691177D01*
X144853883Y-95691178D01*
X144943186Y-95882689D01*
X144943189Y-95882694D01*
X144945512Y-95887676D01*
X144948668Y-95892183D01*
X144948669Y-95892185D01*
X145068295Y-96063028D01*
X145073023Y-96069781D01*
X145230219Y-96226977D01*
X145234727Y-96230134D01*
X145234730Y-96230136D01*
X145242011Y-96235234D01*
X145412323Y-96354488D01*
X145417305Y-96356811D01*
X145417310Y-96356814D01*
X145522373Y-96405805D01*
X145575658Y-96452722D01*
X145595119Y-96520999D01*
X145574577Y-96588959D01*
X145522373Y-96634195D01*
X145513499Y-96638333D01*
X145468161Y-96649889D01*
X145429885Y-96652297D01*
X145429883Y-96652297D01*
X145421973Y-96652795D01*
X145414652Y-96655174D01*
X145414017Y-96655264D01*
X145410557Y-96655980D01*
X145409932Y-96656151D01*
X145402268Y-96656876D01*
X145394805Y-96659563D01*
X145394804Y-96659563D01*
X145338006Y-96680011D01*
X145334263Y-96681293D01*
X145276803Y-96699963D01*
X145276801Y-96699964D01*
X145269267Y-96702412D01*
X145262772Y-96706534D01*
X145262188Y-96706776D01*
X145258988Y-96708344D01*
X145258438Y-96708657D01*
X145251196Y-96711265D01*
X145244635Y-96715724D01*
X145194689Y-96749667D01*
X145191434Y-96751806D01*
X145133697Y-96788447D01*
X145128432Y-96794054D01*
X145127934Y-96794428D01*
X145125200Y-96796762D01*
X145124754Y-96797194D01*
X145118396Y-96801515D01*
X145073179Y-96852804D01*
X145070565Y-96855676D01*
X145023783Y-96905494D01*
X145020078Y-96912233D01*
X145019678Y-96912732D01*
X145017631Y-96915646D01*
X145017299Y-96916188D01*
X145012213Y-96921957D01*
X145008615Y-96929018D01*
X145007434Y-96930756D01*
X144992316Y-96949030D01*
X144792547Y-97148799D01*
X144730235Y-97182825D01*
X144659420Y-97177760D01*
X144600239Y-97131974D01*
X144490140Y-96974735D01*
X144490135Y-96974729D01*
X144486977Y-96970219D01*
X144329781Y-96813023D01*
X144325273Y-96809866D01*
X144325270Y-96809864D01*
X144199229Y-96721609D01*
X144154901Y-96666152D01*
X144145500Y-96618396D01*
X144145500Y-95947941D01*
X144146030Y-95936707D01*
X144147708Y-95929202D01*
X144145562Y-95860909D01*
X144145500Y-95856952D01*
X144145500Y-95828938D01*
X144144992Y-95824917D01*
X144144058Y-95813065D01*
X144143989Y-95810842D01*
X144142665Y-95768716D01*
X144136987Y-95749172D01*
X144132977Y-95729809D01*
X144131420Y-95717481D01*
X144131420Y-95717479D01*
X144130427Y-95709622D01*
X144127511Y-95702258D01*
X144127510Y-95702253D01*
X144114093Y-95668365D01*
X144110248Y-95657136D01*
X144100080Y-95622140D01*
X144097869Y-95614528D01*
X144087510Y-95597012D01*
X144078813Y-95579262D01*
X144071319Y-95560333D01*
X144066042Y-95553069D01*
X144045241Y-95524440D01*
X144038722Y-95514516D01*
X144020170Y-95483145D01*
X144020166Y-95483140D01*
X144016134Y-95476322D01*
X144001747Y-95461935D01*
X143988906Y-95446901D01*
X143981602Y-95436848D01*
X143976942Y-95430434D01*
X143942750Y-95402148D01*
X143933971Y-95394159D01*
X143196329Y-94656517D01*
X143188753Y-94648191D01*
X143184632Y-94641697D01*
X143134813Y-94594914D01*
X143131972Y-94592160D01*
X143112173Y-94572361D01*
X143109048Y-94569937D01*
X143109039Y-94569929D01*
X143108953Y-94569863D01*
X143099928Y-94562155D01*
X143073364Y-94537210D01*
X143067585Y-94531783D01*
X143049748Y-94521977D01*
X143033232Y-94511127D01*
X143017146Y-94498650D01*
X142976413Y-94481024D01*
X142965765Y-94475807D01*
X142940888Y-94462131D01*
X142926882Y-94454431D01*
X142919207Y-94452460D01*
X142919201Y-94452458D01*
X142907168Y-94449369D01*
X142888466Y-94442966D01*
X142869787Y-94434883D01*
X142829992Y-94428580D01*
X142825952Y-94427940D01*
X142814339Y-94425535D01*
X142771361Y-94414500D01*
X142751014Y-94414500D01*
X142731303Y-94412949D01*
X142719029Y-94411005D01*
X142711200Y-94409765D01*
X142703308Y-94410511D01*
X142667023Y-94413941D01*
X142655165Y-94414500D01*
X141867941Y-94414500D01*
X141856707Y-94413970D01*
X141849202Y-94412292D01*
X141781492Y-94414420D01*
X141780909Y-94414438D01*
X141776952Y-94414500D01*
X141748938Y-94414500D01*
X141745013Y-94414996D01*
X141745012Y-94414996D01*
X141744917Y-94415008D01*
X141733072Y-94415941D01*
X141703251Y-94416878D01*
X141696639Y-94417086D01*
X141696638Y-94417086D01*
X141688716Y-94417335D01*
X141669472Y-94422926D01*
X141669173Y-94423013D01*
X141649809Y-94427023D01*
X141637481Y-94428580D01*
X141637479Y-94428580D01*
X141629622Y-94429573D01*
X141622258Y-94432489D01*
X141622253Y-94432490D01*
X141588365Y-94445907D01*
X141577136Y-94449752D01*
X141567823Y-94452458D01*
X141534528Y-94462131D01*
X141527702Y-94466168D01*
X141517012Y-94472490D01*
X141499262Y-94481187D01*
X141480333Y-94488681D01*
X141473917Y-94493342D01*
X141473916Y-94493343D01*
X141466612Y-94498650D01*
X141445653Y-94513878D01*
X141444440Y-94514759D01*
X141434516Y-94521278D01*
X141403145Y-94539830D01*
X141403140Y-94539834D01*
X141396322Y-94543866D01*
X141381935Y-94558253D01*
X141366901Y-94571094D01*
X141350434Y-94583058D01*
X141345381Y-94589166D01*
X141322149Y-94617249D01*
X141314159Y-94626029D01*
X140576517Y-95363671D01*
X140568191Y-95371247D01*
X140561697Y-95375368D01*
X140536548Y-95402149D01*
X140514915Y-95425186D01*
X140512160Y-95428028D01*
X140492361Y-95447827D01*
X140489937Y-95450952D01*
X140489929Y-95450961D01*
X140489863Y-95451047D01*
X140482155Y-95460072D01*
X140451783Y-95492415D01*
X140447965Y-95499360D01*
X140447962Y-95499364D01*
X140445681Y-95503513D01*
X140424363Y-95531904D01*
X140108672Y-95847595D01*
X140046360Y-95881621D01*
X140019577Y-95884500D01*
X134653198Y-95884500D01*
X134585077Y-95864498D01*
X134538584Y-95810842D01*
X134528480Y-95740568D01*
X134539004Y-95705249D01*
X134545643Y-95691012D01*
X134549391Y-95680715D01*
X134604059Y-95476691D01*
X134605962Y-95465896D01*
X134624372Y-95255475D01*
X134624372Y-95244525D01*
X134605962Y-95034104D01*
X134604059Y-95023309D01*
X134549391Y-94819285D01*
X134545645Y-94808993D01*
X134456377Y-94617559D01*
X134450897Y-94608068D01*
X134420206Y-94564235D01*
X134409729Y-94555860D01*
X134396282Y-94562928D01*
X133439095Y-95520115D01*
X133376783Y-95554141D01*
X133305968Y-95549076D01*
X133260905Y-95520115D01*
X132302997Y-94562207D01*
X132291223Y-94555777D01*
X132279207Y-94565074D01*
X132249103Y-94608068D01*
X132243623Y-94617559D01*
X132154355Y-94808993D01*
X132150609Y-94819285D01*
X132095941Y-95023309D01*
X132094038Y-95034104D01*
X132075628Y-95244525D01*
X132075628Y-95255475D01*
X132094038Y-95465896D01*
X132095941Y-95476691D01*
X132150609Y-95680715D01*
X132154357Y-95691012D01*
X132160996Y-95705249D01*
X132171658Y-95775440D01*
X132142679Y-95840253D01*
X132083259Y-95879110D01*
X132046802Y-95884500D01*
X130911562Y-95884500D01*
X130843441Y-95864498D01*
X130796948Y-95810842D01*
X130786844Y-95740568D01*
X130791004Y-95721871D01*
X130845377Y-95542910D01*
X130847555Y-95532837D01*
X130848986Y-95521962D01*
X130846775Y-95507778D01*
X130833617Y-95504000D01*
X128198225Y-95504000D01*
X128184694Y-95507973D01*
X128183257Y-95517966D01*
X128213565Y-95652446D01*
X128216646Y-95662280D01*
X128236468Y-95711097D01*
X128243564Y-95781738D01*
X128211341Y-95845001D01*
X128150031Y-95880801D01*
X128119725Y-95884500D01*
X127784814Y-95884500D01*
X127716693Y-95864498D01*
X127670200Y-95810842D01*
X127659244Y-95760476D01*
X127659504Y-95758000D01*
X127643707Y-95607702D01*
X127640232Y-95574635D01*
X127640232Y-95574633D01*
X127639542Y-95568072D01*
X127580527Y-95386444D01*
X127485040Y-95221056D01*
X127413864Y-95142007D01*
X127383146Y-95078000D01*
X127381500Y-95057697D01*
X127381500Y-95057423D01*
X127401502Y-94989302D01*
X127418405Y-94968327D01*
X127750459Y-94636274D01*
X128104488Y-94282245D01*
X128112807Y-94274675D01*
X128119303Y-94270553D01*
X128142703Y-94245635D01*
X128166085Y-94220735D01*
X128168840Y-94217893D01*
X128188639Y-94198094D01*
X128191068Y-94194963D01*
X128191072Y-94194958D01*
X128191139Y-94194872D01*
X128198847Y-94185847D01*
X128223791Y-94159285D01*
X128223794Y-94159281D01*
X128229217Y-94153506D01*
X128233036Y-94146560D01*
X128233039Y-94146555D01*
X128239022Y-94135672D01*
X128249878Y-94119144D01*
X128257492Y-94109329D01*
X128257494Y-94109326D01*
X128262349Y-94103067D01*
X128265495Y-94095797D01*
X128265498Y-94095792D01*
X128279969Y-94062350D01*
X128285192Y-94051689D01*
X128302749Y-94019753D01*
X128302751Y-94019748D01*
X128306569Y-94012803D01*
X128308539Y-94005129D01*
X128308542Y-94005122D01*
X128311632Y-93993087D01*
X128318036Y-93974382D01*
X128322967Y-93962987D01*
X128326117Y-93955708D01*
X128332881Y-93913002D01*
X128333060Y-93911873D01*
X128335467Y-93900251D01*
X128346500Y-93857282D01*
X128346500Y-93836935D01*
X128348051Y-93817224D01*
X128349995Y-93804950D01*
X128351235Y-93797121D01*
X128350362Y-93787886D01*
X128350564Y-93786843D01*
X128350738Y-93781306D01*
X128351631Y-93781334D01*
X128363861Y-93718184D01*
X128412900Y-93666846D01*
X128481911Y-93650170D01*
X128548982Y-93673451D01*
X128560588Y-93683174D01*
X128561250Y-93683938D01*
X128733126Y-93826632D01*
X128797416Y-93864200D01*
X128806955Y-93869774D01*
X128855679Y-93921412D01*
X128868750Y-93991195D01*
X128842019Y-94056967D01*
X128801562Y-94090327D01*
X128793457Y-94094546D01*
X128784738Y-94100036D01*
X128614433Y-94227905D01*
X128606726Y-94234748D01*
X128459590Y-94388717D01*
X128453104Y-94396727D01*
X128333098Y-94572649D01*
X128328000Y-94581623D01*
X128238338Y-94774783D01*
X128234775Y-94784470D01*
X128179389Y-94984183D01*
X128180912Y-94992607D01*
X128193292Y-94996000D01*
X130833344Y-94996000D01*
X130846875Y-94992027D01*
X130848180Y-94982947D01*
X130806214Y-94815875D01*
X130802894Y-94806124D01*
X130717972Y-94610814D01*
X130713105Y-94601739D01*
X130597426Y-94422926D01*
X130591136Y-94414757D01*
X130447806Y-94257240D01*
X130440273Y-94250215D01*
X130273139Y-94118222D01*
X130264556Y-94112520D01*
X130227602Y-94092120D01*
X130177631Y-94041687D01*
X130162859Y-93972245D01*
X130187975Y-93905839D01*
X130215328Y-93879231D01*
X130218568Y-93876920D01*
X130291735Y-93853500D01*
X132768051Y-93853500D01*
X132821305Y-93865307D01*
X132822969Y-93866083D01*
X132876252Y-93913002D01*
X132895711Y-93981280D01*
X132875167Y-94049239D01*
X132822965Y-94094471D01*
X132717559Y-94143623D01*
X132708068Y-94149103D01*
X132664235Y-94179794D01*
X132655860Y-94190271D01*
X132662928Y-94203718D01*
X133337188Y-94877978D01*
X133351132Y-94885592D01*
X133352965Y-94885461D01*
X133359580Y-94881210D01*
X134037793Y-94202997D01*
X134044223Y-94191223D01*
X134034926Y-94179207D01*
X133991931Y-94149102D01*
X133982445Y-94143624D01*
X133877035Y-94094471D01*
X133823750Y-94047554D01*
X133804289Y-93979277D01*
X133824831Y-93911317D01*
X133877035Y-93866081D01*
X133982690Y-93816814D01*
X133982695Y-93816811D01*
X133987677Y-93814488D01*
X134101010Y-93735131D01*
X134165270Y-93690136D01*
X134165273Y-93690134D01*
X134169781Y-93686977D01*
X134326977Y-93529781D01*
X134338190Y-93513768D01*
X134451331Y-93352185D01*
X134451332Y-93352183D01*
X134454488Y-93347676D01*
X134456811Y-93342694D01*
X134456814Y-93342689D01*
X134546117Y-93151178D01*
X134546118Y-93151177D01*
X134548440Y-93146196D01*
X134605978Y-92931463D01*
X134625353Y-92710000D01*
X134605978Y-92488537D01*
X134548440Y-92273804D01*
X134538299Y-92252056D01*
X134456814Y-92077311D01*
X134456811Y-92077306D01*
X134454488Y-92072324D01*
X134448288Y-92063469D01*
X134330136Y-91894730D01*
X134330134Y-91894727D01*
X134326977Y-91890219D01*
X134169781Y-91733023D01*
X134165273Y-91729866D01*
X134165270Y-91729864D01*
X134054223Y-91652108D01*
X133987677Y-91605512D01*
X133982695Y-91603189D01*
X133982690Y-91603186D01*
X133877627Y-91554195D01*
X133824342Y-91507278D01*
X133804881Y-91439001D01*
X133825423Y-91371041D01*
X133877627Y-91325805D01*
X133982690Y-91276814D01*
X133982695Y-91276811D01*
X133987677Y-91274488D01*
X134101010Y-91195131D01*
X134165270Y-91150136D01*
X134165273Y-91150134D01*
X134169781Y-91146977D01*
X134326977Y-90989781D01*
X134333732Y-90980135D01*
X134451331Y-90812185D01*
X134451332Y-90812183D01*
X134454488Y-90807676D01*
X134456811Y-90802694D01*
X134456814Y-90802689D01*
X134546117Y-90611178D01*
X134546118Y-90611177D01*
X134548440Y-90606196D01*
X134605978Y-90391463D01*
X134625353Y-90170000D01*
X134605978Y-89948537D01*
X134548440Y-89733804D01*
X134460791Y-89545840D01*
X134456814Y-89537311D01*
X134456811Y-89537306D01*
X134454488Y-89532324D01*
X134451331Y-89527815D01*
X134330136Y-89354730D01*
X134330134Y-89354727D01*
X134326977Y-89350219D01*
X134169781Y-89193023D01*
X134165273Y-89189866D01*
X134165270Y-89189864D01*
X134028950Y-89094412D01*
X133987677Y-89065512D01*
X133982695Y-89063189D01*
X133982690Y-89063186D01*
X133878689Y-89014690D01*
X133877627Y-89014195D01*
X133824342Y-88967278D01*
X133804881Y-88899001D01*
X133825423Y-88831041D01*
X133877627Y-88785805D01*
X133982690Y-88736814D01*
X133982695Y-88736811D01*
X133987677Y-88734488D01*
X134101010Y-88655131D01*
X134165270Y-88610136D01*
X134165273Y-88610134D01*
X134169781Y-88606977D01*
X134326977Y-88449781D01*
X134365501Y-88394764D01*
X134451331Y-88272185D01*
X134451332Y-88272183D01*
X134454488Y-88267676D01*
X134456811Y-88262694D01*
X134456814Y-88262689D01*
X134546117Y-88071178D01*
X134546118Y-88071177D01*
X134548440Y-88066196D01*
X134605978Y-87851463D01*
X134625353Y-87630000D01*
X134605978Y-87408537D01*
X134548440Y-87193804D01*
X134541675Y-87179297D01*
X134456814Y-86997311D01*
X134456811Y-86997306D01*
X134454488Y-86992324D01*
X134444370Y-86977874D01*
X134330136Y-86814730D01*
X134330134Y-86814727D01*
X134326977Y-86810219D01*
X134169781Y-86653023D01*
X134165273Y-86649866D01*
X134165270Y-86649864D01*
X134039363Y-86561703D01*
X133987677Y-86525512D01*
X133982695Y-86523189D01*
X133982690Y-86523186D01*
X133877627Y-86474195D01*
X133824342Y-86427278D01*
X133804881Y-86359001D01*
X133825423Y-86291041D01*
X133877627Y-86245805D01*
X133982690Y-86196814D01*
X133982695Y-86196811D01*
X133987677Y-86194488D01*
X134101010Y-86115131D01*
X134165270Y-86070136D01*
X134165273Y-86070134D01*
X134169781Y-86066977D01*
X134326977Y-85909781D01*
X134352391Y-85873487D01*
X134451331Y-85732185D01*
X134451332Y-85732183D01*
X134454488Y-85727676D01*
X134456811Y-85722694D01*
X134456814Y-85722689D01*
X134546117Y-85531178D01*
X134546118Y-85531177D01*
X134548440Y-85526196D01*
X134551514Y-85514726D01*
X134570778Y-85442830D01*
X134605978Y-85311463D01*
X134625353Y-85090000D01*
X134605978Y-84868537D01*
X134548440Y-84653804D01*
X134541675Y-84639297D01*
X134456814Y-84457311D01*
X134456811Y-84457306D01*
X134454488Y-84452324D01*
X134451331Y-84447815D01*
X134330136Y-84274730D01*
X134330134Y-84274727D01*
X134326977Y-84270219D01*
X134169781Y-84113023D01*
X134165273Y-84109866D01*
X134165270Y-84109864D01*
X134057667Y-84034520D01*
X133987677Y-83985512D01*
X133982695Y-83983189D01*
X133982690Y-83983186D01*
X133877627Y-83934195D01*
X133824342Y-83887278D01*
X133804881Y-83819001D01*
X133825423Y-83751041D01*
X133877627Y-83705805D01*
X133982690Y-83656814D01*
X133982695Y-83656811D01*
X133987677Y-83654488D01*
X134146938Y-83542972D01*
X134165270Y-83530136D01*
X134165273Y-83530134D01*
X134169781Y-83526977D01*
X134326977Y-83369781D01*
X134365501Y-83314764D01*
X134451331Y-83192185D01*
X134451332Y-83192183D01*
X134454488Y-83187676D01*
X134456811Y-83182694D01*
X134456814Y-83182689D01*
X134546117Y-82991178D01*
X134546118Y-82991177D01*
X134548440Y-82986196D01*
X134605978Y-82771463D01*
X134625353Y-82550000D01*
X134605978Y-82328537D01*
X134557068Y-82146003D01*
X134549863Y-82119114D01*
X134549862Y-82119112D01*
X134548440Y-82113804D01*
X134541675Y-82099297D01*
X134456814Y-81917311D01*
X134456811Y-81917306D01*
X134454488Y-81912324D01*
X134451331Y-81907815D01*
X134330136Y-81734730D01*
X134330134Y-81734727D01*
X134326977Y-81730219D01*
X134169781Y-81573023D01*
X134165273Y-81569866D01*
X134165270Y-81569864D01*
X134079365Y-81509713D01*
X133987677Y-81445512D01*
X133982695Y-81443189D01*
X133982690Y-81443186D01*
X133877035Y-81393919D01*
X133823750Y-81347002D01*
X133804289Y-81278725D01*
X133824831Y-81210765D01*
X133877035Y-81165529D01*
X133982445Y-81116376D01*
X133991931Y-81110898D01*
X134035764Y-81080207D01*
X134044139Y-81069729D01*
X134037071Y-81056281D01*
X133362812Y-80382022D01*
X133348868Y-80374408D01*
X133347035Y-80374539D01*
X133340420Y-80378790D01*
X132662207Y-81057003D01*
X132655777Y-81068777D01*
X132665074Y-81080793D01*
X132708069Y-81110898D01*
X132717555Y-81116376D01*
X132822965Y-81165529D01*
X132876250Y-81212446D01*
X132895711Y-81280723D01*
X132875169Y-81348683D01*
X132822969Y-81393917D01*
X132821305Y-81394693D01*
X132768051Y-81406500D01*
X130289472Y-81406500D01*
X130221351Y-81386498D01*
X130174858Y-81332842D01*
X130164754Y-81262568D01*
X130194248Y-81197988D01*
X130216304Y-81177921D01*
X130390327Y-81053792D01*
X130398200Y-81047139D01*
X130549052Y-80896812D01*
X130555730Y-80888965D01*
X130680003Y-80716020D01*
X130685313Y-80707183D01*
X130779670Y-80516267D01*
X130783469Y-80506672D01*
X130845377Y-80302910D01*
X130847555Y-80292837D01*
X130848986Y-80281962D01*
X130846775Y-80267778D01*
X130833617Y-80264000D01*
X128198225Y-80264000D01*
X128184694Y-80267973D01*
X128183257Y-80277966D01*
X128213565Y-80412446D01*
X128216645Y-80422275D01*
X128296770Y-80619603D01*
X128301413Y-80628794D01*
X128412694Y-80810388D01*
X128418777Y-80818699D01*
X128558213Y-80979667D01*
X128565580Y-80986883D01*
X128729434Y-81122916D01*
X128737881Y-81128831D01*
X128806969Y-81169203D01*
X128855693Y-81220842D01*
X128868764Y-81290625D01*
X128842033Y-81356396D01*
X128801584Y-81389752D01*
X128788607Y-81396507D01*
X128784474Y-81399610D01*
X128784471Y-81399612D01*
X128614100Y-81527530D01*
X128609965Y-81530635D01*
X128455629Y-81692138D01*
X128452715Y-81696410D01*
X128452714Y-81696411D01*
X128341460Y-81859504D01*
X128286549Y-81904507D01*
X128237372Y-81914500D01*
X127591770Y-81914500D01*
X127580536Y-81913970D01*
X127573031Y-81912292D01*
X127505321Y-81914420D01*
X127504738Y-81914438D01*
X127500781Y-81914500D01*
X127472767Y-81914500D01*
X127468842Y-81914996D01*
X127468841Y-81914996D01*
X127468746Y-81915008D01*
X127456901Y-81915941D01*
X127427080Y-81916878D01*
X127420468Y-81917086D01*
X127420467Y-81917086D01*
X127412545Y-81917335D01*
X127393002Y-81923013D01*
X127373638Y-81927023D01*
X127361310Y-81928580D01*
X127361308Y-81928580D01*
X127353451Y-81929573D01*
X127346087Y-81932489D01*
X127346082Y-81932490D01*
X127312194Y-81945907D01*
X127300965Y-81949752D01*
X127284285Y-81954598D01*
X127258357Y-81962131D01*
X127251530Y-81966169D01*
X127251527Y-81966170D01*
X127240844Y-81972488D01*
X127223086Y-81981188D01*
X127211535Y-81985761D01*
X127211529Y-81985765D01*
X127204162Y-81988681D01*
X127197751Y-81993339D01*
X127197749Y-81993340D01*
X127168262Y-82014764D01*
X127158340Y-82021281D01*
X127126982Y-82039826D01*
X127126978Y-82039829D01*
X127120152Y-82043866D01*
X127105768Y-82058250D01*
X127090734Y-82071091D01*
X127074263Y-82083058D01*
X127069210Y-82089166D01*
X127045973Y-82117255D01*
X127037983Y-82126035D01*
X126980673Y-82183345D01*
X126918361Y-82217371D01*
X126891578Y-82220250D01*
X126521928Y-82220250D01*
X126518682Y-82220587D01*
X126518678Y-82220587D01*
X126424765Y-82230331D01*
X126424761Y-82230332D01*
X126417907Y-82231043D01*
X126411371Y-82233224D01*
X126411369Y-82233224D01*
X126278605Y-82277518D01*
X126252893Y-82286096D01*
X126246661Y-82289952D01*
X126246662Y-82289952D01*
X126112490Y-82372980D01*
X126104969Y-82377634D01*
X126073121Y-82409537D01*
X126010841Y-82443616D01*
X125940021Y-82438613D01*
X125894933Y-82409693D01*
X125867184Y-82381993D01*
X125867183Y-82381992D01*
X125862003Y-82376821D01*
X125813670Y-82347028D01*
X125720150Y-82289381D01*
X125720148Y-82289380D01*
X125713920Y-82285541D01*
X125548809Y-82230776D01*
X125541973Y-82230076D01*
X125541970Y-82230075D01*
X125490474Y-82224799D01*
X125446072Y-82220250D01*
X124958845Y-82220250D01*
X124890724Y-82200248D01*
X124844231Y-82146592D01*
X124834127Y-82076318D01*
X124851585Y-82028135D01*
X124866367Y-82004154D01*
X124866369Y-82004149D01*
X124870209Y-81997920D01*
X124924974Y-81832809D01*
X124935500Y-81730072D01*
X124935500Y-81130928D01*
X124930251Y-81080338D01*
X124925419Y-81033765D01*
X124925418Y-81033761D01*
X124924707Y-81026907D01*
X124919166Y-81010297D01*
X124871972Y-80868841D01*
X124869654Y-80861893D01*
X124778116Y-80713969D01*
X124670859Y-80606899D01*
X124636780Y-80544618D01*
X124641783Y-80473798D01*
X124670704Y-80428709D01*
X124773363Y-80325871D01*
X124782375Y-80314460D01*
X124865912Y-80178937D01*
X124872056Y-80165759D01*
X124922315Y-80014234D01*
X124925181Y-80000868D01*
X124934672Y-79908230D01*
X124935000Y-79901815D01*
X124935000Y-79877615D01*
X124930525Y-79862376D01*
X124929135Y-79861171D01*
X124921452Y-79859500D01*
X123005033Y-79859500D01*
X122936912Y-79839498D01*
X122909620Y-79814783D01*
X122909116Y-79813969D01*
X122889216Y-79794104D01*
X122791184Y-79696242D01*
X122791179Y-79696238D01*
X122786003Y-79691071D01*
X122779772Y-79687230D01*
X122644150Y-79603631D01*
X122644148Y-79603630D01*
X122637920Y-79599791D01*
X122472809Y-79545026D01*
X122465973Y-79544326D01*
X122465970Y-79544325D01*
X122414474Y-79539049D01*
X122370072Y-79534500D01*
X121695928Y-79534500D01*
X121692682Y-79534837D01*
X121692678Y-79534837D01*
X121598765Y-79544581D01*
X121598761Y-79544582D01*
X121591907Y-79545293D01*
X121585371Y-79547474D01*
X121585369Y-79547474D01*
X121452605Y-79591768D01*
X121426893Y-79600346D01*
X121396671Y-79619048D01*
X121286490Y-79687230D01*
X121278969Y-79691884D01*
X121247121Y-79723787D01*
X121184841Y-79757866D01*
X121114021Y-79752863D01*
X121068933Y-79723943D01*
X121041184Y-79696243D01*
X121041183Y-79696242D01*
X121036003Y-79691071D01*
X121029772Y-79687230D01*
X120894150Y-79603631D01*
X120894148Y-79603630D01*
X120887920Y-79599791D01*
X120722809Y-79545026D01*
X120715973Y-79544326D01*
X120715970Y-79544325D01*
X120664474Y-79539049D01*
X120620072Y-79534500D01*
X120243905Y-79534500D01*
X120175784Y-79514498D01*
X120171876Y-79511825D01*
X120166506Y-79506783D01*
X120159564Y-79502967D01*
X120159562Y-79502965D01*
X120148671Y-79496978D01*
X120132153Y-79486127D01*
X120116067Y-79473650D01*
X120075334Y-79456024D01*
X120064686Y-79450807D01*
X120053058Y-79444415D01*
X120025803Y-79429431D01*
X120018128Y-79427460D01*
X120018122Y-79427458D01*
X120006089Y-79424369D01*
X119987387Y-79417966D01*
X119968708Y-79409883D01*
X119934872Y-79404524D01*
X119924873Y-79402940D01*
X119913260Y-79400535D01*
X119870282Y-79389500D01*
X119849935Y-79389500D01*
X119830224Y-79387949D01*
X119817950Y-79386005D01*
X119810121Y-79384765D01*
X119802229Y-79385511D01*
X119765944Y-79388941D01*
X119754086Y-79389500D01*
X119048500Y-79389500D01*
X118980379Y-79369498D01*
X118933886Y-79315842D01*
X118922500Y-79263500D01*
X118922500Y-79126866D01*
X118922483Y-79126711D01*
X118938626Y-79058215D01*
X118989687Y-79008887D01*
X119048155Y-78994500D01*
X122874231Y-78994500D01*
X122942352Y-79014502D01*
G37*
%TD.AperFunction*%
%TA.AperFunction,Conductor*%
G36*
X119191621Y-80680502D02*
G01*
X119238114Y-80734158D01*
X119249500Y-80786500D01*
X119249500Y-80805072D01*
X119249837Y-80808318D01*
X119249837Y-80808322D01*
X119259019Y-80896812D01*
X119260293Y-80909093D01*
X119315346Y-81074107D01*
X119406884Y-81222031D01*
X119412066Y-81227204D01*
X119524816Y-81339758D01*
X119524821Y-81339762D01*
X119529997Y-81344929D01*
X119536227Y-81348769D01*
X119536228Y-81348770D01*
X119631642Y-81407584D01*
X119678080Y-81436209D01*
X119843191Y-81490974D01*
X119850027Y-81491674D01*
X119850030Y-81491675D01*
X119901526Y-81496951D01*
X119945928Y-81501500D01*
X120620072Y-81501500D01*
X120623318Y-81501163D01*
X120623322Y-81501163D01*
X120717235Y-81491419D01*
X120717239Y-81491418D01*
X120724093Y-81490707D01*
X120730629Y-81488526D01*
X120730631Y-81488526D01*
X120866531Y-81443186D01*
X120889107Y-81435654D01*
X120984303Y-81376745D01*
X121030805Y-81347969D01*
X121030806Y-81347968D01*
X121037031Y-81344116D01*
X121068879Y-81312213D01*
X121131159Y-81278134D01*
X121201979Y-81283137D01*
X121247067Y-81312057D01*
X121260649Y-81325615D01*
X121279997Y-81344929D01*
X121286227Y-81348769D01*
X121286228Y-81348770D01*
X121381642Y-81407584D01*
X121428080Y-81436209D01*
X121593191Y-81490974D01*
X121600027Y-81491674D01*
X121600030Y-81491675D01*
X121651526Y-81496951D01*
X121695928Y-81501500D01*
X122370072Y-81501500D01*
X122373318Y-81501163D01*
X122373322Y-81501163D01*
X122467235Y-81491419D01*
X122467239Y-81491418D01*
X122474093Y-81490707D01*
X122480629Y-81488526D01*
X122480631Y-81488526D01*
X122616531Y-81443186D01*
X122639107Y-81435654D01*
X122776198Y-81350820D01*
X122844649Y-81331982D01*
X122912419Y-81353143D01*
X122957990Y-81407584D01*
X122968500Y-81457964D01*
X122968500Y-81730072D01*
X122968837Y-81733318D01*
X122968837Y-81733322D01*
X122974224Y-81785236D01*
X122979293Y-81834093D01*
X122981474Y-81840629D01*
X122981474Y-81840631D01*
X123009792Y-81925511D01*
X123034346Y-81999107D01*
X123125884Y-82147031D01*
X123131066Y-82152204D01*
X123243816Y-82264758D01*
X123243821Y-82264762D01*
X123248997Y-82269929D01*
X123255227Y-82273769D01*
X123255228Y-82273770D01*
X123372149Y-82345841D01*
X123397080Y-82361209D01*
X123562191Y-82415974D01*
X123569027Y-82416674D01*
X123569030Y-82416675D01*
X123620526Y-82421951D01*
X123664928Y-82426500D01*
X124052155Y-82426500D01*
X124120276Y-82446502D01*
X124166769Y-82500158D01*
X124176873Y-82570432D01*
X124159415Y-82618615D01*
X124144633Y-82642596D01*
X124144631Y-82642601D01*
X124140791Y-82648830D01*
X124086026Y-82813941D01*
X124075500Y-82916678D01*
X124075500Y-83490822D01*
X124075837Y-83494068D01*
X124075837Y-83494072D01*
X124084248Y-83575131D01*
X124086293Y-83594843D01*
X124088474Y-83601379D01*
X124088474Y-83601381D01*
X124123529Y-83706454D01*
X124141346Y-83759857D01*
X124232884Y-83907781D01*
X124238066Y-83912954D01*
X124350816Y-84025508D01*
X124350821Y-84025512D01*
X124355997Y-84030679D01*
X124362227Y-84034519D01*
X124362228Y-84034520D01*
X124413616Y-84066196D01*
X124461109Y-84118968D01*
X124473500Y-84173456D01*
X124473500Y-85028083D01*
X124453498Y-85096204D01*
X124413804Y-85135226D01*
X124354969Y-85171634D01*
X124349796Y-85176816D01*
X124237242Y-85289566D01*
X124237238Y-85289571D01*
X124232071Y-85294747D01*
X124228231Y-85300977D01*
X124228230Y-85300978D01*
X124145364Y-85435412D01*
X124140791Y-85442830D01*
X124086026Y-85607941D01*
X124075500Y-85710678D01*
X124075500Y-86284822D01*
X124075837Y-86288068D01*
X124075837Y-86288072D01*
X124085571Y-86381882D01*
X124086293Y-86388843D01*
X124088474Y-86395379D01*
X124088474Y-86395381D01*
X124118874Y-86486500D01*
X124141346Y-86553857D01*
X124232884Y-86701781D01*
X124238066Y-86706954D01*
X124350816Y-86819508D01*
X124350821Y-86819512D01*
X124355997Y-86824679D01*
X124504080Y-86915959D01*
X124669191Y-86970724D01*
X124676027Y-86971424D01*
X124676030Y-86971425D01*
X124723370Y-86976275D01*
X124771928Y-86981250D01*
X125371072Y-86981250D01*
X125374318Y-86980913D01*
X125374322Y-86980913D01*
X125468235Y-86971169D01*
X125468239Y-86971168D01*
X125475093Y-86970457D01*
X125481629Y-86968276D01*
X125481631Y-86968276D01*
X125614395Y-86923982D01*
X125640107Y-86915404D01*
X125788031Y-86823866D01*
X125895101Y-86716609D01*
X125957382Y-86682530D01*
X126028202Y-86687533D01*
X126073291Y-86716454D01*
X126176129Y-86819113D01*
X126187540Y-86828125D01*
X126323063Y-86911662D01*
X126336241Y-86917806D01*
X126487766Y-86968065D01*
X126501132Y-86970931D01*
X126593770Y-86980422D01*
X126600185Y-86980750D01*
X126624385Y-86980750D01*
X126639624Y-86976275D01*
X126640829Y-86974885D01*
X126642500Y-86967202D01*
X126642500Y-85032865D01*
X126638025Y-85017626D01*
X126636635Y-85016421D01*
X126628952Y-85014750D01*
X126600234Y-85014750D01*
X126593718Y-85015087D01*
X126499868Y-85024825D01*
X126486472Y-85027718D01*
X126335047Y-85078238D01*
X126321885Y-85084403D01*
X126186508Y-85168176D01*
X126175110Y-85177210D01*
X126073607Y-85278890D01*
X126011324Y-85312969D01*
X125940504Y-85307966D01*
X125895416Y-85279045D01*
X125787003Y-85170821D01*
X125787946Y-85169876D01*
X125751346Y-85118256D01*
X125744500Y-85077288D01*
X125744500Y-84173417D01*
X125764502Y-84105296D01*
X125804196Y-84066274D01*
X125863031Y-84029866D01*
X125894879Y-83997963D01*
X125957159Y-83963884D01*
X126027979Y-83968887D01*
X126073067Y-83997807D01*
X126083301Y-84008023D01*
X126105997Y-84030679D01*
X126112227Y-84034519D01*
X126112228Y-84034520D01*
X126237713Y-84111870D01*
X126254080Y-84121959D01*
X126419191Y-84176724D01*
X126426027Y-84177424D01*
X126426030Y-84177425D01*
X126477526Y-84182701D01*
X126521928Y-84187250D01*
X126891577Y-84187250D01*
X126959698Y-84207252D01*
X126980672Y-84224155D01*
X127038595Y-84282078D01*
X127072621Y-84344390D01*
X127075500Y-84371173D01*
X127075500Y-93461577D01*
X127055498Y-93529698D01*
X127038595Y-93550673D01*
X126695358Y-93893909D01*
X126352512Y-94236755D01*
X126344193Y-94244325D01*
X126337697Y-94248447D01*
X126332271Y-94254225D01*
X126332270Y-94254226D01*
X126290915Y-94298265D01*
X126288160Y-94301107D01*
X126268361Y-94320906D01*
X126265937Y-94324031D01*
X126265929Y-94324040D01*
X126265863Y-94324126D01*
X126258155Y-94333151D01*
X126227783Y-94365494D01*
X126223965Y-94372438D01*
X126223964Y-94372440D01*
X126217978Y-94383329D01*
X126207127Y-94399847D01*
X126194650Y-94415933D01*
X126177024Y-94456666D01*
X126171807Y-94467314D01*
X126150431Y-94506197D01*
X126148460Y-94513872D01*
X126148458Y-94513878D01*
X126145369Y-94525911D01*
X126138966Y-94544613D01*
X126130883Y-94563292D01*
X126126785Y-94589166D01*
X126123940Y-94607127D01*
X126121535Y-94618740D01*
X126110500Y-94661718D01*
X126110500Y-94682065D01*
X126108949Y-94701776D01*
X126105765Y-94721879D01*
X126106511Y-94729771D01*
X126109941Y-94766056D01*
X126110500Y-94777914D01*
X126110500Y-95057697D01*
X126090498Y-95125818D01*
X126078136Y-95142006D01*
X126006960Y-95221056D01*
X125911473Y-95386444D01*
X125852458Y-95568072D01*
X125851768Y-95574633D01*
X125851768Y-95574635D01*
X125848293Y-95607702D01*
X125832496Y-95758000D01*
X125832717Y-95760099D01*
X125813184Y-95826621D01*
X125759528Y-95873114D01*
X125707186Y-95884500D01*
X118965642Y-95884500D01*
X118897521Y-95864498D01*
X118851028Y-95810842D01*
X118840924Y-95740568D01*
X118845081Y-95721879D01*
X118896370Y-95553069D01*
X118925529Y-95331590D01*
X118927156Y-95265000D01*
X118908852Y-95042361D01*
X118854431Y-94825702D01*
X118765354Y-94620840D01*
X118711251Y-94537210D01*
X118646822Y-94437617D01*
X118646820Y-94437614D01*
X118644014Y-94433277D01*
X118493670Y-94268051D01*
X118489619Y-94264852D01*
X118489615Y-94264848D01*
X118322414Y-94132800D01*
X118322410Y-94132798D01*
X118318359Y-94129598D01*
X118277053Y-94106796D01*
X118227084Y-94056364D01*
X118212312Y-93986921D01*
X118237428Y-93920516D01*
X118264780Y-93893909D01*
X118327242Y-93849355D01*
X118443860Y-93766173D01*
X118602096Y-93608489D01*
X118732453Y-93427077D01*
X118831430Y-93226811D01*
X118896370Y-93013069D01*
X118925529Y-92791590D01*
X118927156Y-92725000D01*
X118908852Y-92502361D01*
X118854431Y-92285702D01*
X118765354Y-92080840D01*
X118644014Y-91893277D01*
X118493670Y-91728051D01*
X118489619Y-91724852D01*
X118489615Y-91724848D01*
X118322414Y-91592800D01*
X118322410Y-91592798D01*
X118318359Y-91589598D01*
X118277053Y-91566796D01*
X118227084Y-91516364D01*
X118212312Y-91446921D01*
X118237428Y-91380516D01*
X118264780Y-91353909D01*
X118331060Y-91306632D01*
X118443860Y-91226173D01*
X118602096Y-91068489D01*
X118633720Y-91024480D01*
X118729435Y-90891277D01*
X118732453Y-90887077D01*
X118775574Y-90799829D01*
X118829136Y-90691453D01*
X118829137Y-90691451D01*
X118831430Y-90686811D01*
X118896370Y-90473069D01*
X118925529Y-90251590D01*
X118927156Y-90185000D01*
X118908852Y-89962361D01*
X118854431Y-89745702D01*
X118765354Y-89540840D01*
X118644014Y-89353277D01*
X118493670Y-89188051D01*
X118489619Y-89184852D01*
X118489615Y-89184848D01*
X118322414Y-89052800D01*
X118322410Y-89052798D01*
X118318359Y-89049598D01*
X118277053Y-89026796D01*
X118227084Y-88976364D01*
X118212312Y-88906921D01*
X118237428Y-88840516D01*
X118264780Y-88813909D01*
X118321431Y-88773500D01*
X118443860Y-88686173D01*
X118602096Y-88528489D01*
X118661594Y-88445689D01*
X118729435Y-88351277D01*
X118732453Y-88347077D01*
X118831430Y-88146811D01*
X118896370Y-87933069D01*
X118925529Y-87711590D01*
X118927156Y-87645000D01*
X118908852Y-87422361D01*
X118854431Y-87205702D01*
X118765354Y-87000840D01*
X118653358Y-86827720D01*
X118646822Y-86817617D01*
X118646820Y-86817614D01*
X118644014Y-86813277D01*
X118493670Y-86648051D01*
X118489619Y-86644852D01*
X118489615Y-86644848D01*
X118322414Y-86512800D01*
X118322410Y-86512798D01*
X118318359Y-86509598D01*
X118277053Y-86486796D01*
X118227084Y-86436364D01*
X118212312Y-86366921D01*
X118237428Y-86300516D01*
X118256960Y-86281516D01*
X119250000Y-86281516D01*
X119250337Y-86288032D01*
X119260075Y-86381882D01*
X119262968Y-86395278D01*
X119313488Y-86546703D01*
X119319653Y-86559865D01*
X119403426Y-86695242D01*
X119412460Y-86706640D01*
X119525129Y-86819113D01*
X119536540Y-86828125D01*
X119672063Y-86911662D01*
X119685241Y-86917806D01*
X119836766Y-86968065D01*
X119850132Y-86970931D01*
X119942770Y-86980422D01*
X119949185Y-86980750D01*
X119973385Y-86980750D01*
X119988624Y-86976275D01*
X119989829Y-86974885D01*
X119991500Y-86967202D01*
X119991500Y-86269865D01*
X119987025Y-86254626D01*
X119985635Y-86253421D01*
X119977952Y-86251750D01*
X119268115Y-86251750D01*
X119252876Y-86256225D01*
X119251671Y-86257615D01*
X119250000Y-86265298D01*
X119250000Y-86281516D01*
X118256960Y-86281516D01*
X118264780Y-86273909D01*
X118321431Y-86233500D01*
X118443860Y-86146173D01*
X118602096Y-85988489D01*
X118606487Y-85982379D01*
X118729435Y-85811277D01*
X118732453Y-85807077D01*
X118753049Y-85765405D01*
X118772704Y-85725635D01*
X119250000Y-85725635D01*
X119254475Y-85740874D01*
X119255865Y-85742079D01*
X119263548Y-85743750D01*
X119973385Y-85743750D01*
X119988624Y-85739275D01*
X119989829Y-85737885D01*
X119991500Y-85730202D01*
X119991500Y-85032865D01*
X119987025Y-85017626D01*
X119985635Y-85016421D01*
X119977952Y-85014750D01*
X119949234Y-85014750D01*
X119942718Y-85015087D01*
X119848868Y-85024825D01*
X119835472Y-85027718D01*
X119684047Y-85078238D01*
X119670885Y-85084403D01*
X119535508Y-85168176D01*
X119524110Y-85177210D01*
X119411637Y-85289879D01*
X119402625Y-85301290D01*
X119319088Y-85436813D01*
X119312944Y-85449991D01*
X119262685Y-85601516D01*
X119259819Y-85614882D01*
X119250328Y-85707520D01*
X119250000Y-85713935D01*
X119250000Y-85725635D01*
X118772704Y-85725635D01*
X118829136Y-85611453D01*
X118829137Y-85611451D01*
X118831430Y-85606811D01*
X118879076Y-85449991D01*
X118894865Y-85398023D01*
X118894865Y-85398021D01*
X118896370Y-85393069D01*
X118925529Y-85171590D01*
X118925611Y-85168240D01*
X118927074Y-85108365D01*
X118927074Y-85108361D01*
X118927156Y-85105000D01*
X118908852Y-84882361D01*
X118854431Y-84665702D01*
X118765354Y-84460840D01*
X118644014Y-84273277D01*
X118493670Y-84108051D01*
X118489619Y-84104852D01*
X118489615Y-84104848D01*
X118322414Y-83972800D01*
X118322410Y-83972798D01*
X118318359Y-83969598D01*
X118277053Y-83946796D01*
X118227084Y-83896364D01*
X118212312Y-83826921D01*
X118237428Y-83760516D01*
X118264780Y-83733909D01*
X118323854Y-83691772D01*
X118443860Y-83606173D01*
X118449970Y-83600085D01*
X118598435Y-83452137D01*
X118602096Y-83448489D01*
X118647855Y-83384809D01*
X118729438Y-83271273D01*
X118729439Y-83271272D01*
X118732453Y-83267077D01*
X118734742Y-83262445D01*
X118735247Y-83261605D01*
X118787477Y-83213516D01*
X118843250Y-83200500D01*
X119123500Y-83200500D01*
X119191621Y-83220502D01*
X119238114Y-83274158D01*
X119249500Y-83326500D01*
X119249500Y-83490822D01*
X119249837Y-83494068D01*
X119249837Y-83494072D01*
X119258248Y-83575131D01*
X119260293Y-83594843D01*
X119262474Y-83601379D01*
X119262474Y-83601381D01*
X119297529Y-83706454D01*
X119315346Y-83759857D01*
X119406884Y-83907781D01*
X119412066Y-83912954D01*
X119524816Y-84025508D01*
X119524821Y-84025512D01*
X119529997Y-84030679D01*
X119536227Y-84034519D01*
X119536228Y-84034520D01*
X119661713Y-84111870D01*
X119678080Y-84121959D01*
X119843191Y-84176724D01*
X119850027Y-84177424D01*
X119850030Y-84177425D01*
X119901526Y-84182701D01*
X119945928Y-84187250D01*
X120620072Y-84187250D01*
X120623318Y-84186913D01*
X120623322Y-84186913D01*
X120717235Y-84177169D01*
X120717239Y-84177168D01*
X120724093Y-84176457D01*
X120730629Y-84174276D01*
X120730631Y-84174276D01*
X120875592Y-84125913D01*
X120889107Y-84121404D01*
X120951927Y-84082530D01*
X121030805Y-84033719D01*
X121030808Y-84033717D01*
X121037031Y-84029866D01*
X121068879Y-83997963D01*
X121131159Y-83963884D01*
X121201979Y-83968887D01*
X121247067Y-83997807D01*
X121257301Y-84008023D01*
X121279997Y-84030679D01*
X121286227Y-84034519D01*
X121286228Y-84034520D01*
X121337616Y-84066196D01*
X121385109Y-84118968D01*
X121397500Y-84173456D01*
X121397500Y-85077303D01*
X121377498Y-85145424D01*
X121353861Y-85171524D01*
X121353970Y-85171633D01*
X121353969Y-85171634D01*
X121246899Y-85278891D01*
X121184618Y-85312970D01*
X121113798Y-85307967D01*
X121068709Y-85279046D01*
X120965871Y-85176387D01*
X120954460Y-85167375D01*
X120818937Y-85083838D01*
X120805759Y-85077694D01*
X120654234Y-85027435D01*
X120640868Y-85024569D01*
X120548230Y-85015078D01*
X120541815Y-85014750D01*
X120517615Y-85014750D01*
X120502376Y-85019225D01*
X120501171Y-85020615D01*
X120499500Y-85028298D01*
X120499500Y-86962635D01*
X120503975Y-86977874D01*
X120505365Y-86979079D01*
X120513048Y-86980750D01*
X120541766Y-86980750D01*
X120548282Y-86980413D01*
X120642132Y-86970675D01*
X120655528Y-86967782D01*
X120806953Y-86917262D01*
X120820115Y-86911097D01*
X120955492Y-86827324D01*
X120966890Y-86818290D01*
X121068393Y-86716610D01*
X121130676Y-86682531D01*
X121201496Y-86687534D01*
X121246583Y-86716454D01*
X121354997Y-86824679D01*
X121503080Y-86915959D01*
X121668191Y-86970724D01*
X121675027Y-86971424D01*
X121675030Y-86971425D01*
X121722370Y-86976275D01*
X121770928Y-86981250D01*
X122370072Y-86981250D01*
X122373318Y-86980913D01*
X122373322Y-86980913D01*
X122467235Y-86971169D01*
X122467239Y-86971168D01*
X122474093Y-86970457D01*
X122480629Y-86968276D01*
X122480631Y-86968276D01*
X122613395Y-86923982D01*
X122639107Y-86915404D01*
X122787031Y-86823866D01*
X122801415Y-86809457D01*
X122904758Y-86705934D01*
X122904762Y-86705929D01*
X122909929Y-86700753D01*
X122913770Y-86694522D01*
X122997369Y-86558900D01*
X122997370Y-86558898D01*
X123001209Y-86552670D01*
X123055974Y-86387559D01*
X123057346Y-86374174D01*
X123065211Y-86297402D01*
X123066500Y-86284822D01*
X123066500Y-85710678D01*
X123058434Y-85632940D01*
X123056419Y-85613515D01*
X123056418Y-85613511D01*
X123055707Y-85606657D01*
X123046347Y-85578600D01*
X123002972Y-85448591D01*
X123000654Y-85441643D01*
X122909116Y-85293719D01*
X122894261Y-85278890D01*
X122791184Y-85175992D01*
X122791179Y-85175988D01*
X122786003Y-85170821D01*
X122743621Y-85144696D01*
X122728384Y-85135304D01*
X122680891Y-85082532D01*
X122668500Y-85028044D01*
X122668500Y-84173417D01*
X122688502Y-84105296D01*
X122728196Y-84066274D01*
X122787031Y-84029866D01*
X122805035Y-84011831D01*
X122904758Y-83911934D01*
X122904762Y-83911929D01*
X122909929Y-83906753D01*
X122920891Y-83888969D01*
X122997369Y-83764900D01*
X122997370Y-83764898D01*
X123001209Y-83758670D01*
X123055974Y-83593559D01*
X123057263Y-83580983D01*
X123066172Y-83494021D01*
X123066500Y-83490822D01*
X123066500Y-82916678D01*
X123055707Y-82812657D01*
X123000654Y-82647643D01*
X122909116Y-82499719D01*
X122852915Y-82443616D01*
X122791184Y-82381992D01*
X122791179Y-82381988D01*
X122786003Y-82376821D01*
X122737670Y-82347028D01*
X122644150Y-82289381D01*
X122644148Y-82289380D01*
X122637920Y-82285541D01*
X122472809Y-82230776D01*
X122465973Y-82230076D01*
X122465970Y-82230075D01*
X122414474Y-82224799D01*
X122370072Y-82220250D01*
X121695928Y-82220250D01*
X121692682Y-82220587D01*
X121692678Y-82220587D01*
X121598765Y-82230331D01*
X121598761Y-82230332D01*
X121591907Y-82231043D01*
X121585371Y-82233224D01*
X121585369Y-82233224D01*
X121452605Y-82277518D01*
X121426893Y-82286096D01*
X121420661Y-82289952D01*
X121420662Y-82289952D01*
X121286490Y-82372980D01*
X121278969Y-82377634D01*
X121247121Y-82409537D01*
X121184841Y-82443616D01*
X121114021Y-82438613D01*
X121068933Y-82409693D01*
X121041184Y-82381993D01*
X121041183Y-82381992D01*
X121036003Y-82376821D01*
X120987670Y-82347028D01*
X120894150Y-82289381D01*
X120894148Y-82289380D01*
X120887920Y-82285541D01*
X120722809Y-82230776D01*
X120715973Y-82230076D01*
X120715970Y-82230075D01*
X120664474Y-82224799D01*
X120620072Y-82220250D01*
X120250423Y-82220250D01*
X120182302Y-82200248D01*
X120161328Y-82183345D01*
X120149500Y-82171517D01*
X120141924Y-82163191D01*
X120137803Y-82156697D01*
X120087984Y-82109914D01*
X120085143Y-82107160D01*
X120065344Y-82087361D01*
X120062219Y-82084937D01*
X120062210Y-82084929D01*
X120062124Y-82084863D01*
X120053099Y-82077155D01*
X120026535Y-82052210D01*
X120020756Y-82046783D01*
X120012124Y-82042037D01*
X120002921Y-82036978D01*
X119986403Y-82026127D01*
X119970317Y-82013650D01*
X119929584Y-81996024D01*
X119918936Y-81990807D01*
X119894801Y-81977539D01*
X119880053Y-81969431D01*
X119872378Y-81967460D01*
X119872372Y-81967458D01*
X119860339Y-81964369D01*
X119841637Y-81957966D01*
X119822958Y-81949883D01*
X119789122Y-81944524D01*
X119779123Y-81942940D01*
X119767510Y-81940535D01*
X119724532Y-81929500D01*
X119704185Y-81929500D01*
X119684474Y-81927949D01*
X119672200Y-81926005D01*
X119664371Y-81924765D01*
X119656479Y-81925511D01*
X119620194Y-81928941D01*
X119608336Y-81929500D01*
X118839511Y-81929500D01*
X118771390Y-81909498D01*
X118733719Y-81871940D01*
X118646822Y-81737617D01*
X118646820Y-81737614D01*
X118644014Y-81733277D01*
X118640532Y-81729450D01*
X118496798Y-81571488D01*
X118465746Y-81507642D01*
X118474141Y-81437143D01*
X118519317Y-81382375D01*
X118545761Y-81368706D01*
X118652297Y-81328767D01*
X118660705Y-81325615D01*
X118777261Y-81238261D01*
X118864615Y-81121705D01*
X118915745Y-80985316D01*
X118922500Y-80923134D01*
X118922500Y-80786500D01*
X118942502Y-80718379D01*
X118996158Y-80671886D01*
X119048500Y-80660500D01*
X119123500Y-80660500D01*
X119191621Y-80680502D01*
G37*
%TD.AperFunction*%
%TA.AperFunction,Conductor*%
G36*
X113773874Y-79014502D02*
G01*
X113820367Y-79068158D01*
X113826649Y-79085001D01*
X113829475Y-79094624D01*
X113830865Y-79095829D01*
X113838548Y-79097500D01*
X115772885Y-79097500D01*
X115788124Y-79093025D01*
X115791181Y-79089497D01*
X115822902Y-79031404D01*
X115885214Y-78997379D01*
X115911997Y-78994500D01*
X116079845Y-78994500D01*
X116147966Y-79014502D01*
X116194459Y-79068158D01*
X116205527Y-79126616D01*
X116205500Y-79126866D01*
X116205500Y-80923134D01*
X116212255Y-80985316D01*
X116263385Y-81121705D01*
X116350739Y-81238261D01*
X116467295Y-81325615D01*
X116475704Y-81328767D01*
X116475705Y-81328768D01*
X116584451Y-81369535D01*
X116641216Y-81412176D01*
X116665916Y-81478738D01*
X116650709Y-81548087D01*
X116631316Y-81574568D01*
X116522535Y-81688401D01*
X116504629Y-81707138D01*
X116501715Y-81711410D01*
X116501714Y-81711411D01*
X116491212Y-81726806D01*
X116378743Y-81891680D01*
X116361908Y-81927949D01*
X116289071Y-82084863D01*
X116284688Y-82094305D01*
X116224989Y-82309570D01*
X116201251Y-82531695D01*
X116201548Y-82536848D01*
X116201548Y-82536851D01*
X116207577Y-82641412D01*
X116214110Y-82754715D01*
X116215247Y-82759761D01*
X116215248Y-82759767D01*
X116239304Y-82866508D01*
X116263222Y-82972639D01*
X116347266Y-83179616D01*
X116352205Y-83187676D01*
X116461035Y-83365270D01*
X116463987Y-83370088D01*
X116610250Y-83538938D01*
X116782126Y-83681632D01*
X116844226Y-83717920D01*
X116855445Y-83724476D01*
X116904169Y-83776114D01*
X116917240Y-83845897D01*
X116890509Y-83911669D01*
X116850055Y-83945027D01*
X116837607Y-83951507D01*
X116833474Y-83954610D01*
X116833471Y-83954612D01*
X116663100Y-84082530D01*
X116658965Y-84085635D01*
X116504629Y-84247138D01*
X116501715Y-84251410D01*
X116501714Y-84251411D01*
X116455620Y-84318983D01*
X116378743Y-84431680D01*
X116284688Y-84634305D01*
X116224989Y-84849570D01*
X116201251Y-85071695D01*
X116201548Y-85076848D01*
X116201548Y-85076851D01*
X116207268Y-85176052D01*
X116214110Y-85294715D01*
X116215247Y-85299761D01*
X116215248Y-85299767D01*
X116235119Y-85387939D01*
X116263222Y-85512639D01*
X116312071Y-85632940D01*
X116343637Y-85710678D01*
X116347266Y-85719616D01*
X116376117Y-85766697D01*
X116461035Y-85905270D01*
X116463987Y-85910088D01*
X116610250Y-86078938D01*
X116782126Y-86221632D01*
X116843704Y-86257615D01*
X116855445Y-86264476D01*
X116904169Y-86316114D01*
X116917240Y-86385897D01*
X116890509Y-86451669D01*
X116850055Y-86485027D01*
X116837607Y-86491507D01*
X116833474Y-86494610D01*
X116833471Y-86494612D01*
X116663100Y-86622530D01*
X116658965Y-86625635D01*
X116655393Y-86629373D01*
X116587181Y-86700753D01*
X116504629Y-86787138D01*
X116501715Y-86791410D01*
X116501714Y-86791411D01*
X116476400Y-86828520D01*
X116378743Y-86971680D01*
X116284688Y-87174305D01*
X116224989Y-87389570D01*
X116201251Y-87611695D01*
X116201548Y-87616848D01*
X116201548Y-87616851D01*
X116207011Y-87711590D01*
X116214110Y-87834715D01*
X116215247Y-87839761D01*
X116215248Y-87839767D01*
X116221692Y-87868360D01*
X116263222Y-88052639D01*
X116347266Y-88259616D01*
X116349965Y-88264020D01*
X116461035Y-88445270D01*
X116463987Y-88450088D01*
X116610250Y-88618938D01*
X116782126Y-88761632D01*
X116844226Y-88797920D01*
X116855445Y-88804476D01*
X116904169Y-88856114D01*
X116917240Y-88925897D01*
X116890509Y-88991669D01*
X116850055Y-89025027D01*
X116837607Y-89031507D01*
X116833474Y-89034610D01*
X116833471Y-89034612D01*
X116663100Y-89162530D01*
X116658965Y-89165635D01*
X116584364Y-89243701D01*
X116576733Y-89251686D01*
X116515209Y-89287116D01*
X116444296Y-89283659D01*
X116386510Y-89242413D01*
X116368484Y-89211011D01*
X116365088Y-89202432D01*
X116361246Y-89191210D01*
X116355981Y-89173087D01*
X116348869Y-89148607D01*
X116344836Y-89141788D01*
X116344834Y-89141783D01*
X116338510Y-89131091D01*
X116329813Y-89113341D01*
X116322319Y-89094412D01*
X116296240Y-89058517D01*
X116289722Y-89048595D01*
X116271170Y-89017224D01*
X116271166Y-89017219D01*
X116267134Y-89010401D01*
X116252747Y-88996014D01*
X116239906Y-88980980D01*
X116232602Y-88970927D01*
X116227942Y-88964513D01*
X116193750Y-88936227D01*
X116184971Y-88928238D01*
X115187405Y-87930672D01*
X115153379Y-87868360D01*
X115150500Y-87841577D01*
X115150500Y-86751866D01*
X115143745Y-86689684D01*
X115092615Y-86553295D01*
X115005261Y-86436739D01*
X114888705Y-86349385D01*
X114752316Y-86298255D01*
X114691437Y-86291642D01*
X114625876Y-86264401D01*
X114585449Y-86206038D01*
X114582993Y-86135084D01*
X114615950Y-86077284D01*
X114927829Y-85765405D01*
X114990141Y-85731379D01*
X115016924Y-85728500D01*
X115095072Y-85728500D01*
X115098318Y-85728163D01*
X115098322Y-85728163D01*
X115192235Y-85718419D01*
X115192239Y-85718418D01*
X115199093Y-85717707D01*
X115205629Y-85715526D01*
X115205631Y-85715526D01*
X115357159Y-85664972D01*
X115364107Y-85662654D01*
X115512031Y-85571116D01*
X115522935Y-85560193D01*
X115629758Y-85453184D01*
X115629762Y-85453179D01*
X115634929Y-85448003D01*
X115638770Y-85441772D01*
X115722369Y-85306150D01*
X115722370Y-85306148D01*
X115726209Y-85299920D01*
X115780974Y-85134809D01*
X115783684Y-85108365D01*
X115791172Y-85035271D01*
X115791500Y-85032072D01*
X115791500Y-84357928D01*
X115791163Y-84354678D01*
X115781419Y-84260765D01*
X115781418Y-84260761D01*
X115780707Y-84253907D01*
X115773445Y-84232138D01*
X115727972Y-84095841D01*
X115725654Y-84088893D01*
X115634116Y-83940969D01*
X115602213Y-83909121D01*
X115568134Y-83846841D01*
X115573137Y-83776021D01*
X115602057Y-83730933D01*
X115629757Y-83703184D01*
X115634929Y-83698003D01*
X115638770Y-83691772D01*
X115722369Y-83556150D01*
X115722370Y-83556148D01*
X115726209Y-83549920D01*
X115780974Y-83384809D01*
X115782083Y-83373990D01*
X115786951Y-83326474D01*
X115791500Y-83282072D01*
X115791500Y-82607928D01*
X115791163Y-82604678D01*
X115781419Y-82510765D01*
X115781418Y-82510761D01*
X115780707Y-82503907D01*
X115725654Y-82338893D01*
X115634116Y-82190969D01*
X115574214Y-82131171D01*
X115540134Y-82068889D01*
X115545137Y-81998069D01*
X115574058Y-81952980D01*
X115577281Y-81949752D01*
X115634929Y-81892003D01*
X115667394Y-81839335D01*
X115722369Y-81750150D01*
X115722370Y-81750148D01*
X115726209Y-81743920D01*
X115780974Y-81578809D01*
X115781891Y-81569864D01*
X115789901Y-81491675D01*
X115791500Y-81476072D01*
X115791500Y-80876928D01*
X115789940Y-80861893D01*
X115781419Y-80779765D01*
X115781418Y-80779761D01*
X115780707Y-80772907D01*
X115767780Y-80734158D01*
X115727972Y-80614841D01*
X115725654Y-80607893D01*
X115634116Y-80459969D01*
X115526859Y-80352899D01*
X115492780Y-80290618D01*
X115497783Y-80219798D01*
X115526704Y-80174709D01*
X115629363Y-80071871D01*
X115638375Y-80060460D01*
X115721912Y-79924937D01*
X115728056Y-79911759D01*
X115778315Y-79760234D01*
X115781181Y-79746868D01*
X115790672Y-79654230D01*
X115791000Y-79647815D01*
X115791000Y-79623615D01*
X115786525Y-79608376D01*
X115785135Y-79607171D01*
X115777452Y-79605500D01*
X113843115Y-79605500D01*
X113827876Y-79609975D01*
X113826671Y-79611365D01*
X113825000Y-79619048D01*
X113825000Y-79647766D01*
X113825337Y-79654282D01*
X113835075Y-79748132D01*
X113837968Y-79761528D01*
X113888488Y-79912953D01*
X113894653Y-79926115D01*
X113978426Y-80061492D01*
X113987460Y-80072890D01*
X114089140Y-80174393D01*
X114123219Y-80236676D01*
X114118216Y-80307496D01*
X114089296Y-80352583D01*
X113981071Y-80460997D01*
X113977231Y-80467227D01*
X113977230Y-80467228D01*
X113894364Y-80601662D01*
X113889791Y-80609080D01*
X113835026Y-80774191D01*
X113824500Y-80876928D01*
X113824500Y-81476072D01*
X113824837Y-81479318D01*
X113824837Y-81479322D01*
X113834232Y-81569864D01*
X113835293Y-81580093D01*
X113890346Y-81745107D01*
X113981884Y-81893031D01*
X114038836Y-81949883D01*
X114041786Y-81952828D01*
X114075866Y-82015111D01*
X114070863Y-82085931D01*
X114041943Y-82131019D01*
X113981071Y-82191997D01*
X113977231Y-82198227D01*
X113977230Y-82198228D01*
X113894364Y-82332662D01*
X113889791Y-82340080D01*
X113835026Y-82505191D01*
X113834326Y-82512027D01*
X113834325Y-82512030D01*
X113831782Y-82536851D01*
X113824500Y-82607928D01*
X113824500Y-83282072D01*
X113824837Y-83285318D01*
X113824837Y-83285322D01*
X113834005Y-83373678D01*
X113835293Y-83386093D01*
X113890346Y-83551107D01*
X113908834Y-83580983D01*
X113931285Y-83617263D01*
X113981884Y-83699031D01*
X114013787Y-83730879D01*
X114047866Y-83793159D01*
X114042863Y-83863979D01*
X114013943Y-83909067D01*
X113996563Y-83926478D01*
X113981071Y-83941997D01*
X113977231Y-83948227D01*
X113977230Y-83948228D01*
X113894364Y-84082662D01*
X113889791Y-84090080D01*
X113835026Y-84255191D01*
X113834326Y-84262027D01*
X113834325Y-84262030D01*
X113833564Y-84269457D01*
X113824500Y-84357928D01*
X113824500Y-85019077D01*
X113804498Y-85087198D01*
X113787595Y-85108173D01*
X113589783Y-85305984D01*
X113398512Y-85497255D01*
X113390193Y-85504825D01*
X113383697Y-85508947D01*
X113378271Y-85514725D01*
X113378270Y-85514726D01*
X113336915Y-85558765D01*
X113334160Y-85561607D01*
X113314361Y-85581406D01*
X113311937Y-85584531D01*
X113311929Y-85584540D01*
X113311863Y-85584626D01*
X113304155Y-85593651D01*
X113273783Y-85625994D01*
X113269965Y-85632938D01*
X113269964Y-85632940D01*
X113263978Y-85643829D01*
X113253127Y-85660347D01*
X113240650Y-85676433D01*
X113223024Y-85717166D01*
X113217807Y-85727814D01*
X113196431Y-85766697D01*
X113194460Y-85774372D01*
X113194458Y-85774378D01*
X113191369Y-85786411D01*
X113184966Y-85805113D01*
X113176883Y-85823792D01*
X113171524Y-85857628D01*
X113169940Y-85867627D01*
X113167535Y-85879240D01*
X113156500Y-85922218D01*
X113156500Y-85942565D01*
X113154949Y-85962276D01*
X113151765Y-85982379D01*
X113152511Y-85990271D01*
X113155941Y-86026556D01*
X113156500Y-86038414D01*
X113156500Y-86165500D01*
X113136498Y-86233621D01*
X113082842Y-86280114D01*
X113030500Y-86291500D01*
X112893866Y-86291500D01*
X112831684Y-86298255D01*
X112695295Y-86349385D01*
X112578739Y-86436739D01*
X112496326Y-86546703D01*
X112495326Y-86548037D01*
X112438467Y-86590552D01*
X112367648Y-86595578D01*
X112305355Y-86561518D01*
X112271365Y-86499187D01*
X112268500Y-86472472D01*
X112268500Y-79120500D01*
X112288502Y-79052379D01*
X112342158Y-79005886D01*
X112394500Y-78994500D01*
X113705753Y-78994500D01*
X113773874Y-79014502D01*
G37*
%TD.AperFunction*%
%TD*%
M02*
