M48
; DRILL file {KiCad (6.0.11-0)} date Sunday, February 12, 2023 at 12:51:19 PM
; FORMAT={-:-/ absolute / inch / decimal}
; #@! TF.CreationDate,2023-02-12T12:51:19-05:00
; #@! TF.GenerationSoftware,Kicad,Pcbnew,(6.0.11-0)
; #@! TF.FileFunction,Plated,1,2,PTH
FMAT,2
INCH
; #@! TA.AperFunction,Plated,PTH,ViaDrill
T1C0.0157
; #@! TA.AperFunction,Plated,PTH,ComponentDrill
T2C0.0394
; #@! TA.AperFunction,Plated,PTH,ComponentDrill
T3C0.0400
%
G90
G05
T1
X4.99Y-3.77
X4.99Y-3.8764
T2
X4.48Y-3.4508
X4.48Y-3.5508
X4.6285Y-3.1506
X4.6285Y-3.2506
X4.6285Y-3.3506
X4.6285Y-3.4506
X4.6285Y-3.5506
X4.6285Y-3.6506
X4.6285Y-3.7506
X4.6285Y-3.8506
X5.099Y-3.15
X5.099Y-3.25
X5.099Y-3.35
X5.099Y-3.45
X5.099Y-3.55
X5.099Y-3.65
X5.099Y-3.75
X5.099Y-3.85
T3
X5.25Y-3.15
X5.25Y-3.25
X5.25Y-3.35
X5.25Y-3.45
X5.25Y-3.55
X5.25Y-3.65
X5.25Y-3.75
X5.25Y-3.85
X5.55Y-3.85
X5.6Y-3.785
X5.65Y-3.85
X5.75Y-3.15
X5.75Y-3.25
X5.75Y-3.35
X5.75Y-3.45
X5.75Y-3.55
X5.75Y-3.65
X5.75Y-3.75
X5.75Y-3.85
T0
M30
