%TF.GenerationSoftware,KiCad,Pcbnew,(6.0.11-0)*%
%TF.CreationDate,2023-02-12T12:51:19-05:00*%
%TF.ProjectId,TMC-Breakout,544d432d-4272-4656-916b-6f75742e6b69,1.0.0*%
%TF.SameCoordinates,Original*%
%TF.FileFunction,Copper,L2,Bot*%
%TF.FilePolarity,Positive*%
%FSLAX46Y46*%
G04 Gerber Fmt 4.6, Leading zero omitted, Abs format (unit mm)*
G04 Created by KiCad (PCBNEW (6.0.11-0)) date 2023-02-12 12:51:19*
%MOMM*%
%LPD*%
G01*
G04 APERTURE LIST*
%TA.AperFunction,ComponentPad*%
%ADD10R,1.700000X1.700000*%
%TD*%
%TA.AperFunction,ComponentPad*%
%ADD11O,1.700000X1.700000*%
%TD*%
%TA.AperFunction,ComponentPad*%
%ADD12R,1.524000X1.524000*%
%TD*%
%TA.AperFunction,ComponentPad*%
%ADD13C,1.524000*%
%TD*%
%TA.AperFunction,ViaPad*%
%ADD14C,0.800000*%
%TD*%
%TA.AperFunction,Conductor*%
%ADD15C,0.254000*%
%TD*%
G04 APERTURE END LIST*
D10*
%TO.P,J102,1,Pin_1*%
%TO.N,VDD*%
X129515000Y-97790000D03*
D11*
%TO.P,J102,2,Pin_2*%
%TO.N,GND*%
X129515000Y-95250000D03*
%TO.P,J102,3,Pin_3*%
%TO.N,/M2B*%
X129515000Y-92710000D03*
%TO.P,J102,4,Pin_4*%
%TO.N,/M2A*%
X129515000Y-90170000D03*
%TO.P,J102,5,Pin_5*%
%TO.N,/M1A*%
X129515000Y-87630000D03*
%TO.P,J102,6,Pin_6*%
%TO.N,/M1B*%
X129515000Y-85090000D03*
%TO.P,J102,7,Pin_7*%
%TO.N,VCC*%
X129515000Y-82550000D03*
%TO.P,J102,8,Pin_8*%
%TO.N,GND*%
X129515000Y-80010000D03*
%TD*%
D12*
%TO.P,U101,JP1_1,DIR*%
%TO.N,/DIR*%
X146050000Y-80010000D03*
D13*
%TO.P,U101,JP1_2,STEP*%
%TO.N,/STEP*%
X146050000Y-82550000D03*
%TO.P,U101,JP1_3,DC0*%
%TO.N,/DCO*%
X146050000Y-85090000D03*
%TO.P,U101,JP1_4,SDO/CFG0*%
%TO.N,/CFG0*%
X146050000Y-87630000D03*
%TO.P,U101,JP1_5,CS/CFG3*%
%TO.N,/CFG3*%
X146050000Y-90170000D03*
%TO.P,U101,JP1_6,SCK/CFG2*%
%TO.N,/CFG2*%
X146050000Y-92710000D03*
%TO.P,U101,JP1_7,SDI/CFG1*%
%TO.N,/CFG1*%
X146050000Y-95250000D03*
%TO.P,U101,JP1_8,EN*%
%TO.N,/~{EN}*%
X146050000Y-97790000D03*
D12*
%TO.P,U101,JP2_1,VM*%
%TO.N,VDD*%
X133350000Y-97790000D03*
D13*
%TO.P,U101,JP2_2,GND*%
%TO.N,GND*%
X133350000Y-95250000D03*
%TO.P,U101,JP2_3,M2B*%
%TO.N,/M2B*%
X133350000Y-92710000D03*
%TO.P,U101,JP2_4,M2A*%
%TO.N,/M2A*%
X133350000Y-90170000D03*
%TO.P,U101,JP2_5,M1A*%
%TO.N,/M1A*%
X133350000Y-87630000D03*
%TO.P,U101,JP2_6,M1B*%
%TO.N,/M1B*%
X133350000Y-85090000D03*
%TO.P,U101,JP2_7,VIO*%
%TO.N,VCC*%
X133350000Y-82550000D03*
%TO.P,U101,JP2_8,GND*%
%TO.N,GND*%
X133350000Y-80010000D03*
%TO.P,U101,JP3_1,DIAG0*%
%TO.N,/DIAG0*%
X140970000Y-97790000D03*
%TO.P,U101,JP3_2,DIAG1*%
%TO.N,/DIAG1*%
X143510000Y-97790000D03*
%TO.P,U101,VREF,VREF*%
%TO.N,unconnected-(U101-PadVREF)*%
X142240000Y-96139000D03*
%TD*%
D10*
%TO.P,J101,1,Pin_1*%
%TO.N,/DIR*%
X117564000Y-80025000D03*
D11*
%TO.P,J101,2,Pin_2*%
%TO.N,/STEP*%
X117564000Y-82565000D03*
%TO.P,J101,3,Pin_3*%
%TO.N,/DCO*%
X117564000Y-85105000D03*
%TO.P,J101,4,Pin_4*%
%TO.N,/CFG0*%
X117564000Y-87645000D03*
%TO.P,J101,5,Pin_5*%
%TO.N,/CFG3*%
X117564000Y-90185000D03*
%TO.P,J101,6,Pin_6*%
%TO.N,/CFG2*%
X117564000Y-92725000D03*
%TO.P,J101,7,Pin_7*%
%TO.N,/CFG1*%
X117564000Y-95265000D03*
%TO.P,J101,8,Pin_8*%
%TO.N,/~{EN}*%
X117564000Y-97805000D03*
%TD*%
D10*
%TO.P,J103,1,Pin_1*%
%TO.N,/DIAG1*%
X113792000Y-87650000D03*
D11*
%TO.P,J103,2,Pin_2*%
%TO.N,/DIAG0*%
X113792000Y-90190000D03*
%TD*%
D14*
%TO.N,VCC*%
X126746000Y-98460500D03*
X126746000Y-95758000D03*
%TD*%
D15*
%TO.N,/DIR*%
X146050000Y-80010000D02*
X144687000Y-81373000D01*
X118912000Y-81373000D02*
X117564000Y-80025000D01*
X144687000Y-81373000D02*
X118912000Y-81373000D01*
%TO.N,/STEP*%
X146050000Y-82550000D02*
X144780000Y-83820000D01*
X118819000Y-83820000D02*
X117564000Y-82565000D01*
X144780000Y-83820000D02*
X118819000Y-83820000D01*
%TO.N,/DCO*%
X118819000Y-86360000D02*
X117564000Y-85105000D01*
X146050000Y-85090000D02*
X144780000Y-86360000D01*
X144780000Y-86360000D02*
X118819000Y-86360000D01*
%TO.N,/CFG0*%
X146050000Y-87630000D02*
X144780000Y-88900000D01*
X118819000Y-88900000D02*
X117564000Y-87645000D01*
X144780000Y-88900000D02*
X118819000Y-88900000D01*
%TO.N,/CFG3*%
X146050000Y-90170000D02*
X144780000Y-91440000D01*
X118819000Y-91440000D02*
X117564000Y-90185000D01*
X144780000Y-91440000D02*
X118819000Y-91440000D01*
%TO.N,/CFG2*%
X118819000Y-93980000D02*
X117564000Y-92725000D01*
X144780000Y-93980000D02*
X118819000Y-93980000D01*
X146050000Y-92710000D02*
X144780000Y-93980000D01*
%TO.N,/CFG1*%
X118872000Y-94996000D02*
X118603000Y-95265000D01*
X146050000Y-95250000D02*
X145850000Y-95050000D01*
X118603000Y-95265000D02*
X117564000Y-95265000D01*
X134859000Y-96427000D02*
X129027470Y-96427000D01*
X136236000Y-95050000D02*
X134859000Y-96427000D01*
X145850000Y-95050000D02*
X136236000Y-95050000D01*
X127596470Y-94996000D02*
X118872000Y-94996000D01*
X129027470Y-96427000D02*
X127596470Y-94996000D01*
%TO.N,VCC*%
X126746000Y-95758000D02*
X126746000Y-98460500D01*
%TO.N,/DIAG0*%
X140970000Y-97790000D02*
X139573000Y-99187000D01*
X139573000Y-99187000D02*
X115380000Y-99187000D01*
X114008000Y-97815000D02*
X114008000Y-90190000D01*
X115380000Y-99187000D02*
X114008000Y-97815000D01*
%TD*%
%TA.AperFunction,Conductor*%
%TO.N,GND*%
G36*
X132114923Y-94635502D02*
G01*
X132161416Y-94689158D01*
X132171520Y-94759432D01*
X132160996Y-94794751D01*
X132154357Y-94808988D01*
X132150609Y-94819285D01*
X132095941Y-95023309D01*
X132094038Y-95034104D01*
X132075628Y-95244525D01*
X132075628Y-95255475D01*
X132094038Y-95465896D01*
X132095941Y-95476691D01*
X132137794Y-95632889D01*
X132136104Y-95703865D01*
X132096310Y-95762661D01*
X132031045Y-95790609D01*
X132016087Y-95791500D01*
X130939818Y-95791500D01*
X130871697Y-95771498D01*
X130825204Y-95717842D01*
X130815100Y-95647568D01*
X130819260Y-95628871D01*
X130845377Y-95542910D01*
X130847555Y-95532837D01*
X130848986Y-95521962D01*
X130846775Y-95507778D01*
X130833617Y-95504000D01*
X129387000Y-95504000D01*
X129318879Y-95483998D01*
X129272386Y-95430342D01*
X129261000Y-95378000D01*
X129261000Y-95122000D01*
X129281002Y-95053879D01*
X129334658Y-95007386D01*
X129387000Y-94996000D01*
X130833344Y-94996000D01*
X130846875Y-94992027D01*
X130848180Y-94982947D01*
X130806214Y-94815875D01*
X130802894Y-94806124D01*
X130796641Y-94791742D01*
X130787821Y-94721296D01*
X130818488Y-94657264D01*
X130878905Y-94619976D01*
X130912191Y-94615500D01*
X132046802Y-94615500D01*
X132114923Y-94635502D01*
G37*
%TD.AperFunction*%
%TA.AperFunction,Conductor*%
G36*
X128393414Y-79014502D02*
G01*
X128439907Y-79068158D01*
X128450011Y-79138432D01*
X128429381Y-79191505D01*
X128333095Y-79332655D01*
X128328000Y-79341623D01*
X128238338Y-79534783D01*
X128234775Y-79544470D01*
X128179389Y-79744183D01*
X128180912Y-79752607D01*
X128193292Y-79756000D01*
X130833344Y-79756000D01*
X130846875Y-79752027D01*
X130848180Y-79742947D01*
X130806214Y-79575875D01*
X130802894Y-79566124D01*
X130717972Y-79370814D01*
X130713105Y-79361739D01*
X130601317Y-79188940D01*
X130581110Y-79120880D01*
X130600906Y-79052699D01*
X130654421Y-79006045D01*
X130707109Y-78994500D01*
X132268634Y-78994500D01*
X132336755Y-79014502D01*
X132383248Y-79068158D01*
X132393352Y-79138432D01*
X132371847Y-79192770D01*
X132249102Y-79368070D01*
X132243624Y-79377556D01*
X132154355Y-79568993D01*
X132150609Y-79579285D01*
X132095941Y-79783309D01*
X132094038Y-79794104D01*
X132075628Y-80004525D01*
X132075628Y-80015475D01*
X132094038Y-80225896D01*
X132095941Y-80236691D01*
X132150609Y-80440715D01*
X132154355Y-80451007D01*
X132204364Y-80558250D01*
X132215025Y-80628441D01*
X132186045Y-80693254D01*
X132126626Y-80732111D01*
X132090169Y-80737500D01*
X130873152Y-80737500D01*
X130805031Y-80717498D01*
X130758538Y-80663842D01*
X130748434Y-80593568D01*
X130760194Y-80555674D01*
X130779672Y-80516263D01*
X130783469Y-80506672D01*
X130845377Y-80302910D01*
X130847555Y-80292837D01*
X130848986Y-80281962D01*
X130846775Y-80267778D01*
X130833617Y-80264000D01*
X128198225Y-80264000D01*
X128184694Y-80267973D01*
X128183257Y-80277966D01*
X128213565Y-80412446D01*
X128216645Y-80422275D01*
X128274231Y-80564096D01*
X128281327Y-80634737D01*
X128249105Y-80698001D01*
X128187795Y-80733801D01*
X128157488Y-80737500D01*
X119227422Y-80737500D01*
X119159301Y-80717498D01*
X119138327Y-80700595D01*
X118959405Y-80521673D01*
X118925379Y-80459361D01*
X118922500Y-80432578D01*
X118922500Y-79126866D01*
X118922483Y-79126711D01*
X118938626Y-79058215D01*
X118989687Y-79008887D01*
X119048155Y-78994500D01*
X128325293Y-78994500D01*
X128393414Y-79014502D01*
G37*
%TD.AperFunction*%
%TD*%
M02*
